<?xml version="1.0" standalone="no"?>
<!DOCTYPE svg PUBLIC "-//W3C//DTD SVG 20010904//EN"
 "http://www.w3.org/TR/2001/REC-SVG-20010904/DTD/svg10.dtd">
<svg version="1.0" xmlns="http://www.w3.org/2000/svg"
 width="300.000000pt" height="388.000000pt" viewBox="0 0 300.000000 388.000000"
 preserveAspectRatio="xMidYMid meet">
<metadata>
Created by potrace 1.10, written by Peter Selinger 2001-2011
</metadata>
<g transform="translate(0.000000,388.000000) scale(0.100000,-0.100000)"
fill="#000000" stroke="none">
<path d="M2928 3814 c15 -19 35 -34 45 -34 29 0 14 22 -31 46 l-41 22 27 -34z"/>
<path d="M1727 3817 c-5 -14 8 -45 17 -37 2 3 6 14 8 24 4 22 -17 33 -25 13z"/>
<path d="M2343 3770 c2 -23 6 -24 30 -6 24 18 21 26 -7 26 -19 0 -24 -5 -23
-20z"/>
<path d="M400 3746 c0 -22 19 -29 36 -15 12 10 12 14 2 20 -20 13 -38 10 -38
-5z"/>
<path d="M302 3718 c7 -19 38 -22 38 -4 0 10 -9 16 -21 16 -12 0 -19 -5 -17
-12z"/>
<path d="M1535 3630 c-3 -5 -4 -10 0 -10 3 0 1 -9 -5 -20 -6 -11 -7 -20 -2
-20 14 0 29 23 29 43 0 19 -12 23 -22 7z"/>
<path d="M1374 3604 c6 -13 17 -24 24 -24 23 0 9 32 -19 42 -14 5 -15 3 -5
-18z"/>
<path d="M2940 3619 c0 -6 -7 -9 -15 -5 -13 4 -14 2 -5 -14 13 -24 26 -26 34
-4 9 23 7 34 -4 34 -5 0 -10 -5 -10 -11z"/>
<path d="M2787 3599 c-3 -11 -15 -23 -26 -26 -24 -6 -28 -23 -7 -23 8 0 26 4
40 9 18 7 28 6 36 -5 17 -19 30 -18 30 4 0 20 -39 62 -57 62 -6 0 -13 -9 -16
-21z"/>
<path d="M1786 3566 c6 -16 50 -30 65 -20 16 10 -4 25 -40 30 -24 4 -30 2 -25
-10z"/>
<path d="M2691 3571 c-14 -4 -26 -12 -29 -19 -6 -20 25 -25 50 -8 12 9 17 16
10 16 -7 0 -10 5 -7 10 3 6 5 10 3 9 -2 -1 -14 -4 -27 -8z"/>
<path d="M260 3531 c13 -26 43 -28 38 -3 -2 9 -14 18 -26 20 -21 3 -22 1 -12
-17z"/>
<path d="M2250 3529 c0 -5 -4 -7 -10 -4 -5 3 -10 4 -10 1 0 -3 10 -10 21 -17
17 -8 23 -8 30 2 4 7 5 17 3 21 -8 12 -34 10 -34 -3z"/>
<path d="M1340 3512 c0 -12 30 -52 40 -52 14 0 -1 36 -21 48 -10 7 -19 9 -19
4z"/>
<path d="M2886 3511 c-3 -5 4 -22 16 -37 12 -16 23 -31 25 -33 1 -2 9 2 17 8
13 11 11 17 -11 42 -27 30 -38 35 -47 20z"/>
<path d="M2187 3483 c-4 -3 -2 -12 4 -20 9 -10 15 -10 25 -2 8 6 14 15 14 20
0 10 -34 12 -43 2z"/>
<path d="M37 3450 c3 -11 12 -20 20 -20 10 0 13 6 9 16 -3 9 -6 18 -6 20 0 2
-6 4 -14 4 -9 0 -12 -7 -9 -20z"/>
<path d="M1697 3410 c-26 -10 -50 -19 -52 -19 -3 -1 -5 -4 -6 -8 -1 -15 33
-15 49 0 9 8 40 22 67 30 42 12 45 15 20 15 -16 1 -52 -7 -78 -18z"/>
<path d="M1318 3373 c-8 -14 -3 -38 7 -41 12 -3 16 36 4 43 -4 3 -9 2 -11 -2z"/>
<path d="M915 3299 c-4 -5 -8 -21 -10 -35 -2 -20 2 -24 24 -24 15 0 36 6 46
14 18 13 18 14 -2 20 -12 4 -24 13 -27 21 -6 17 -22 20 -31 4z"/>
<path d="M1033 3283 c-10 -21 -9 -23 18 -23 34 0 35 4 11 28 -18 18 -19 17
-29 -5z"/>
<path d="M1850 3279 c0 -7 7 -17 15 -23 19 -14 32 -76 16 -76 -6 0 -11 -7 -11
-16 0 -11 5 -14 16 -10 9 3 18 6 20 6 2 0 4 5 4 11 0 6 13 21 28 34 16 13 29
31 29 40 0 13 -3 14 -23 0 -33 -22 -44 -19 -55 15 -10 29 -39 42 -39 19z"/>
<path d="M1265 3258 c4 -11 0 -18 -14 -23 -20 -6 -20 -25 -1 -25 18 0 33 41
20 54 -8 8 -10 7 -5 -6z"/>
<path d="M1340 3235 c0 -8 0 -18 1 -21 0 -3 -11 -14 -25 -25 -15 -11 -26 -28
-26 -36 0 -14 2 -15 18 -1 9 9 23 13 30 11 8 -3 10 2 6 14 -5 17 -5 17 9 1 8
-10 17 -15 20 -12 3 3 -3 14 -14 25 -15 15 -17 24 -9 39 7 14 7 20 0 20 -5 0
-10 -7 -10 -15z"/>
<path d="M1500 3240 c0 -3 11 -10 24 -16 20 -9 25 -9 29 5 3 13 -3 17 -24 16
-16 0 -29 -2 -29 -5z"/>
<path d="M980 3233 c0 -1 13 -8 28 -15 31 -16 52 -13 52 7 0 9 -13 13 -40 12
-22 -1 -40 -3 -40 -4z"/>
<path d="M1112 3228 c6 -16 93 -47 134 -48 21 0 31 5 31 15 0 10 -4 12 -12 5
-7 -6 -21 -3 -41 9 -38 23 -118 37 -112 19z"/>
<path d="M1419 3231 c11 -7 7 -12 -15 -25 -25 -13 -26 -15 -8 -16 12 0 27 7
34 15 13 15 6 35 -13 35 -8 0 -7 -3 2 -9z"/>
<path d="M620 3212 c0 -10 3 -22 7 -25 10 -11 32 13 26 29 -8 20 -33 17 -33
-4z"/>
<path d="M2512 3219 c-19 -7 -22 -14 -16 -31 9 -32 9 -32 33 -11 36 30 25 58
-17 42z"/>
<path d="M188 3213 c-16 -2 -28 -9 -28 -14 0 -6 6 -9 13 -6 6 2 17 -3 22 -10
14 -19 44 -6 42 18 -1 10 -6 18 -12 18 -5 -1 -22 -4 -37 -6z"/>
<path d="M896 3201 c-3 -5 4 -16 17 -24 20 -13 25 -13 42 0 19 15 19 15 -3 10
-32 -7 -59 2 -40 14 9 6 9 9 1 9 -6 0 -14 -4 -17 -9z"/>
<path d="M1077 3193 c-3 -5 -1 -17 4 -28 5 -13 8 -15 9 -5 0 12 3 12 14 -2 7
-10 16 -15 19 -11 9 9 -13 33 -30 33 -8 0 -11 5 -8 10 3 6 4 10 1 10 -3 0 -7
-3 -9 -7z"/>
<path d="M1436 3181 c-8 -13 3 -38 20 -45 8 -3 14 -12 14 -19 0 -8 6 -20 14
-26 11 -10 15 -8 19 6 4 13 5 12 6 -6 1 -20 3 -21 16 -11 17 14 3 40 -22 40
-19 0 -66 48 -58 60 3 6 4 10 1 10 -3 0 -7 -4 -10 -9z"/>
<path d="M125 3159 c-4 -11 -4 -23 0 -27 7 -7 25 17 25 36 0 20 -18 14 -25 -9z"/>
<path d="M1053 3159 c2 -15 -2 -37 -8 -49 -12 -23 -9 -60 5 -60 4 0 11 11 14
25 4 14 11 25 17 25 6 0 8 -7 5 -16 -5 -13 -2 -14 11 -8 10 4 30 7 44 6 19 -1
26 4 25 15 0 9 5 18 13 21 9 3 11 0 6 -8 -5 -9 -4 -11 3 -6 16 10 15 26 -1 26
-8 0 -28 -7 -45 -16 -18 -8 -41 -13 -52 -9 -27 9 -25 24 3 18 l22 -5 -22 16
c-12 9 -27 24 -33 34 -9 14 -11 13 -7 -9z"/>
<path d="M1383 3161 c-24 -20 -32 -38 -11 -25 7 5 9 2 5 -9 -4 -12 10 -27 27
-27 1 0 2 18 2 40 1 22 0 40 0 40 -1 -1 -11 -9 -23 -19z"/>
<path d="M836 3142 l-19 -24 26 17 c14 9 30 14 35 12 4 -3 14 -2 21 2 9 6 4
10 -16 13 -22 3 -34 -2 -47 -20z"/>
<path d="M1227 3163 c-27 -4 -28 -5 -10 -19 10 -9 11 -12 3 -8 -13 7 -13 5 -1
-9 15 -18 26 -23 16 -7 -3 6 1 10 9 10 9 0 14 8 13 20 -1 11 -1 19 -2 19 0 -1
-13 -4 -28 -6z"/>
<path d="M943 3125 c-13 -9 -23 -21 -23 -27 0 -6 9 -3 19 6 11 10 28 16 40 14
11 -2 21 2 23 7 5 17 -36 17 -59 0z"/>
<path d="M401 3116 c-9 -11 -8 -15 5 -20 16 -6 33 8 34 27 0 12 -27 8 -39 -7z"/>
<path d="M1272 3105 c-11 -24 -11 -25 9 -15 17 9 23 8 35 -7 7 -10 14 -22 14
-27 0 -6 4 -6 10 0 8 8 2 21 -19 42 -16 18 -31 32 -33 32 -3 0 -10 -11 -16
-25z"/>
<path d="M150 3089 c0 -10 30 -20 41 -13 18 11 9 24 -16 22 -14 -1 -25 -5 -25
-9z"/>
<path d="M765 3070 c-19 -37 -19 -46 0 -30 9 7 18 10 21 7 3 -3 -5 -13 -19
-22 -34 -22 -41 -67 -17 -107 l19 -31 6 26 c4 15 11 27 17 27 5 0 7 8 4 18 -6
18 9 39 49 67 19 14 19 14 -3 8 -12 -3 -32 -20 -45 -37 -23 -33 -23 -33 -27
-68 -2 -22 -2 -22 -10 2 -13 42 -11 48 26 90 33 36 34 40 15 40 -13 0 -21 6
-21 18 0 11 3 13 8 5 4 -7 13 -9 21 -4 9 6 7 10 -8 14 -16 4 -25 -2 -36 -23z"/>
<path d="M1379 3076 c10 -12 22 -15 39 -11 15 4 21 2 17 -5 -3 -5 -23 -10 -43
-10 -25 0 -32 -3 -23 -9 10 -6 11 -13 2 -29 -14 -26 7 -44 21 -18 13 23 51 20
83 -8 25 -22 29 -33 36 -113 4 -48 8 -89 8 -91 1 -2 6 0 11 3 6 4 10 30 9 58
-2 29 1 60 5 70 6 12 4 17 -8 17 -15 0 -23 41 -17 88 1 6 -5 12 -13 12 -10 0
-13 6 -9 15 3 9 2 15 -3 14 -5 -1 -22 3 -37 9 -16 7 -33 10 -38 7 -5 -3 -19 0
-31 6 -21 11 -22 11 -9 -5z"/>
<path d="M935 3050 c1 -8 10 -17 20 -18 11 -3 15 0 11 7 -4 6 0 11 10 11 26 0
6 15 -21 15 -15 1 -22 -4 -20 -15z"/>
<path d="M1130 3050 c0 -5 7 -10 15 -10 8 0 24 -8 35 -17 21 -18 101 -45 133
-44 9 0 17 -5 17 -10 0 -6 5 -7 10 -4 6 3 10 13 10 22 0 11 -6 14 -21 10 -16
-4 -18 -3 -8 9 9 11 8 14 -9 14 -29 0 -53 11 -47 20 3 5 0 12 -6 16 -8 5 -9 3
-4 -6 6 -10 4 -12 -8 -7 -9 3 -19 2 -23 -4 -3 -6 -11 -3 -20 8 -13 17 -13 17
-14 0 0 -17 -1 -17 -16 -3 -17 18 -44 21 -44 6z"/>
<path d="M2675 3039 c-11 -16 2 -22 32 -15 21 6 24 9 12 17 -19 12 -36 11 -44
-2z"/>
<path d="M2121 3024 c-25 -6 -47 -17 -50 -25 -3 -11 -1 -12 10 -2 21 17 59 5
59 -19 0 -18 2 -19 17 -7 10 8 14 9 10 2 -4 -6 -3 -14 3 -18 11 -7 11 15 1 55
-6 24 -8 25 -50 14z"/>
<path d="M2598 2970 c-25 -24 -22 -32 9 -28 16 2 29 10 31 19 4 24 -20 29 -40
9z"/>
<path d="M1933 2961 c-13 -22 -8 -31 19 -31 13 0 18 7 18 25 0 30 -20 33 -37
6z"/>
<path d="M1128 2940 c-24 -18 -44 -70 -28 -70 13 0 60 60 60 76 0 18 -2 18
-32 -6z"/>
<path d="M285 2930 c-3 -5 -3 -10 2 -11 4 0 -1 -4 -11 -8 -12 -4 -15 -10 -9
-14 5 -3 21 5 33 18 19 20 20 25 7 25 -9 0 -19 -4 -22 -10z"/>
<path d="M730 2916 c0 -4 7 -48 16 -97 16 -84 25 -102 39 -79 11 17 33 11 68
-20 19 -16 39 -30 44 -30 5 0 16 -15 25 -33 26 -55 43 -43 45 32 1 59 4 67 30
85 42 31 100 91 80 83 -9 -3 -17 -2 -17 3 0 18 -25 9 -45 -16 -11 -14 -32 -38
-47 -53 -15 -16 -23 -33 -19 -40 4 -6 5 -26 3 -43 l-5 -31 -18 24 c-12 15 -19
19 -19 10 0 -8 -3 -12 -6 -8 -3 3 -2 11 2 18 4 7 9 25 10 39 1 14 0 19 -3 12
-4 -9 -9 -10 -18 -2 -9 8 -11 4 -7 -16 4 -24 3 -25 -18 -14 -12 7 -25 20 -27
31 -4 15 -9 16 -24 9 -15 -9 -21 -5 -33 19 -8 15 -13 31 -10 33 2 3 -7 25 -21
49 -13 24 -25 40 -25 35z"/>
<path d="M1631 2896 c-9 -10 -9 -16 -1 -21 6 -4 12 -5 13 -4 2 2 9 12 16 22
11 14 11 17 -2 17 -8 0 -20 -6 -26 -14z"/>
<path d="M84 2887 c-8 -22 3 -37 27 -37 24 0 24 12 -1 35 -17 16 -20 16 -26 2z"/>
<path d="M2313 2883 c-22 -8 -14 -23 12 -23 14 0 25 4 25 9 0 11 -21 19 -37
14z"/>
<path d="M2015 2859 c-10 -15 2 -23 38 -25 18 -1 38 -3 46 -5 7 -2 15 1 18 7
2 7 -16 16 -41 23 -55 13 -53 13 -61 0z"/>
<path d="M350 2814 c0 -1 19 -17 43 -35 23 -18 35 -24 26 -14 -9 11 -18 26
-21 34 -3 11 -48 25 -48 15z"/>
<path d="M652 2790 c4 -20 32 -19 36 2 2 12 -3 16 -18 15 -13 -1 -20 -7 -18
-17z"/>
<path d="M1150 2781 c-8 -5 -27 -15 -43 -22 -15 -7 -24 -16 -19 -21 5 -5 23
-1 41 8 44 22 155 31 166 14 6 -10 -3 -11 -40 -6 -41 7 -55 4 -111 -25 -63
-33 -85 -57 -41 -46 55 14 97 33 97 44 0 19 16 15 31 -7 28 -41 121 7 103 54
-5 13 -21 16 -88 15 -44 0 -88 -4 -96 -8z"/>
<path d="M1402 2739 c-1 -43 28 -80 61 -78 20 1 19 2 -5 12 -27 11 -38 27 -18
27 6 0 10 7 10 15 0 21 12 19 33 -6 10 -11 21 -18 24 -15 10 10 -7 36 -29 46
l-23 9 23 0 c12 1 22 7 22 15 0 10 -13 13 -49 12 l-49 -1 0 -36z"/>
<path d="M2307 2773 c-12 -11 13 -31 33 -26 24 6 26 19 4 27 -20 8 -29 8 -37
-1z"/>
<path d="M2437 2708 c-29 -33 -29 -62 0 -56 10 2 22 13 28 26 5 12 18 22 27
22 21 0 23 11 6 28 -19 19 -31 15 -61 -20z"/>
<path d="M1857 2724 c-9 -10 4 -34 18 -34 23 0 27 18 7 29 -11 6 -22 8 -25 5z"/>
<path d="M770 2701 c-5 -11 -10 -30 -10 -43 0 -21 2 -20 21 10 23 35 36 40 45
17 4 -8 10 -12 16 -9 13 8 -21 44 -43 44 -10 0 -23 -9 -29 -19z"/>
<path d="M1516 2693 c-4 -12 -2 -51 4 -88 12 -76 10 -84 -35 -175 -17 -36 -38
-83 -45 -105 -14 -46 -56 -95 -81 -95 -25 0 -49 -11 -49 -21 0 -5 14 -9 30 -9
17 0 30 5 30 10 0 6 21 10 46 10 41 0 45 2 39 20 -4 12 0 31 9 45 9 13 16 33
16 43 0 10 3 22 7 26 4 4 8 21 9 38 1 17 6 33 11 37 35 23 58 227 29 266 -13
18 -14 18 -20 -2z"/>
<path d="M270 2677 c0 -10 -5 -14 -15 -11 -8 4 -15 1 -15 -6 0 -8 11 -11 30
-8 17 3 30 2 30 -2 0 -3 16 -4 36 -2 22 3 31 7 24 12 -7 4 -21 5 -31 3 -11 -3
-28 2 -39 12 -18 16 -20 16 -20 2z"/>
<path d="M1190 2681 l-55 -6 37 -8 c34 -7 78 4 78 18 0 3 -1 4 -2 3 -2 -1 -28
-4 -58 -7z"/>
<path d="M728 2640 c-3 -29 0 -50 9 -58 7 -7 13 -20 13 -27 0 -7 11 -27 25
-43 14 -17 25 -34 24 -39 -1 -4 -1 -24 0 -43 2 -42 15 -24 24 32 5 30 2 40
-12 48 -29 15 -54 61 -67 120 l-11 55 -5 -45z"/>
<path d="M831 2649 c-51 -20 -36 -74 22 -74 27 0 33 3 25 13 -6 6 -8 25 -5 40
6 31 -2 35 -42 21z"/>
<path d="M2260 2606 c0 -17 27 -29 35 -16 4 6 3 15 0 20 -9 15 -35 12 -35 -4z"/>
<path d="M1245 2568 c-23 -27 -38 -38 -42 -30 -2 6 -9 12 -15 12 -6 0 -5 -6 2
-15 11 -13 9 -20 -10 -40 -13 -14 -19 -25 -13 -25 6 0 28 18 50 40 l39 40 32
-26 c18 -15 32 -32 32 -38 0 -7 21 -12 51 -14 32 -1 48 2 44 8 -4 6 -1 18 6
26 16 20 5 28 -20 15 -13 -7 -22 -8 -26 -1 -3 5 -24 10 -46 10 -27 0 -42 5
-46 16 -8 22 9 47 38 55 22 6 21 7 -8 8 -25 1 -39 -7 -68 -41z"/>
<path d="M2172 2570 c-12 -19 -7 -50 8 -50 18 0 26 26 15 47 -11 21 -12 21
-23 3z"/>
<path d="M220 2545 c0 -8 6 -15 14 -15 8 0 23 -3 33 -7 17 -6 17 -5 -1 15 -22
25 -46 29 -46 7z"/>
<path d="M330 2516 c0 -29 20 -38 43 -21 16 12 15 14 -7 29 -33 21 -36 20 -36
-8z"/>
<path d="M1792 2509 c-12 -5 -22 -12 -22 -15 0 -4 3 -4 7 -1 3 4 15 -1 25 -10
14 -13 21 -14 30 -5 9 9 9 12 -2 13 -9 0 -8 3 4 8 20 8 20 8 0 13 -11 3 -30 1
-42 -3z"/>
<path d="M2010 2495 c-11 -13 -9 -19 8 -36 15 -14 22 -16 22 -6 0 7 15 21 33
30 21 10 26 16 14 16 -10 1 -27 -4 -37 -9 -16 -8 -18 -8 -14 5 8 20 -10 19
-26 0z"/>
<path d="M896 2491 c-4 -6 -16 -11 -27 -11 -17 0 -18 -3 -9 -20 14 -27 46 -26
54 2 6 25 -8 46 -18 29z"/>
<path d="M113 2475 c-7 -21 -2 -25 25 -18 18 4 20 8 11 19 -15 18 -28 18 -36
-1z"/>
<path d="M472 2478 c-19 -19 -14 -28 18 -28 17 0 30 4 30 8 0 9 -21 32 -30 32
-3 0 -11 -5 -18 -12z"/>
<path d="M677 2476 c-5 -13 12 -26 34 -26 16 0 10 19 -10 29 -14 8 -20 7 -24
-3z"/>
<path d="M1203 2458 c-18 -24 -23 -48 -9 -48 7 0 16 3 19 6 3 4 49 6 100 5 98
-2 147 5 147 20 0 5 -10 7 -22 4 -13 -3 -32 -5 -43 -5 -11 1 -49 3 -83 5 -35
1 -69 8 -75 14 -14 14 -22 14 -34 -1z"/>
<path d="M262 2443 c-17 -7 -5 -23 19 -23 10 0 19 7 19 15 0 15 -14 18 -38 8z"/>
<path d="M2185 2425 c0 -14 5 -21 13 -18 19 8 14 -8 -10 -34 -15 -17 -19 -26
-11 -34 8 -8 16 -2 29 20 10 17 24 31 32 31 22 0 8 22 -24 40 -28 16 -29 16
-29 -5z"/>
<path d="M2847 2434 c-8 -8 44 -74 58 -74 6 0 5 4 -2 8 -6 4 -11 16 -10 26 2
19 -35 51 -46 40z"/>
<path d="M919 2388 c17 -25 52 -64 78 -87 26 -22 44 -43 41 -47 -10 -9 -63 29
-132 95 -39 36 -52 46 -39 26 33 -48 72 -83 127 -115 55 -31 154 -113 198
-164 20 -23 27 -27 28 -14 0 17 -25 48 -40 48 -4 0 -25 25 -45 56 -20 30 -43
58 -50 60 -8 3 -16 13 -19 21 -6 14 -4 14 11 2 10 -8 25 -22 34 -31 9 -10 31
-18 50 -18 19 0 46 -7 61 -14 18 -10 30 -11 34 -4 8 13 -3 22 -46 38 -127 47
-238 106 -279 149 l-43 46 31 -47z"/>
<path d="M2637 2399 c-12 -14 -25 -17 -42 -13 -14 3 -25 2 -25 -3 0 -12 133
-38 154 -30 9 4 16 2 16 -3 0 -11 79 -34 87 -26 14 14 -22 34 -68 39 -37 5
-58 13 -75 32 -27 29 -24 29 -47 4z"/>
<path d="M1713 2404 c-20 -8 -3 -34 22 -34 32 0 40 16 16 29 -11 6 -21 11 -23
10 -2 0 -8 -3 -15 -5z"/>
<path d="M662 2388 c3 -7 13 -15 24 -18 10 -3 27 -10 38 -16 17 -10 17 -13 1
-43 -11 -22 -21 -31 -32 -27 -11 5 -14 2 -9 -10 3 -8 1 -24 -4 -35 -9 -15 -15
-17 -30 -9 -15 8 -21 6 -30 -9 -8 -15 -7 -22 5 -29 17 -9 10 -42 -9 -42 -6 0
-17 -9 -23 -19 -8 -13 -23 -19 -48 -19 -20 0 -39 -3 -42 -6 -4 -3 1 -6 11 -6
9 0 14 -4 11 -10 -3 -5 -1 -10 4 -10 6 0 11 -5 11 -11 0 -6 -9 -9 -20 -6 -16
4 -20 0 -20 -19 0 -13 -9 -28 -19 -34 -26 -13 -31 -13 -31 5 0 8 -4 15 -9 15
-6 0 -7 -15 -4 -34 4 -28 1 -37 -16 -48 -13 -8 -21 -23 -21 -40 0 -20 -5 -28
-18 -28 -11 0 -18 -8 -19 -21 -1 -11 -12 -29 -24 -40 -12 -11 -16 -19 -9 -19
18 0 5 -59 -18 -76 -10 -8 -28 -11 -47 -8 -27 6 -28 5 -15 -11 8 -10 23 -15
37 -12 17 3 23 0 23 -14 0 -44 -41 -105 -62 -93 -5 3 -8 0 -8 -6 0 -6 -11 -8
-27 -4 -27 6 -27 6 -8 -9 17 -13 22 -13 42 0 21 14 23 14 32 -8 6 -17 5 -26
-4 -31 -7 -4 -10 -18 -8 -33 4 -19 0 -27 -20 -34 -27 -11 -42 -48 -25 -68 14
-18 1 -131 -19 -162 -8 -13 -10 -20 -4 -17 15 10 14 6 -9 -39 l-21 -40 22 -3
c17 -3 19 -8 14 -25 -4 -12 -8 -39 -9 -59 0 -21 -4 -38 -8 -38 -4 0 -8 -12
-10 -27 -2 -20 -10 -29 -32 -34 -16 -5 -37 -17 -48 -28 -22 -25 -12 -28 13 -5
16 14 23 15 48 4 29 -12 29 -12 13 -40 -9 -16 -26 -31 -37 -32 -20 -3 -24 -22
-5 -24 6 -1 15 -2 21 -3 20 -2 4 -35 -19 -41 l-24 -5 22 -27 c14 -19 20 -39
18 -60 -2 -21 3 -37 12 -45 13 -10 11 -12 -13 -18 -22 -6 -33 -3 -48 13 -19
21 -19 21 3 36 12 9 18 19 14 23 -4 4 -13 0 -20 -10 -16 -21 -26 -22 -26 -3 0
9 -7 12 -20 9 -23 -6 -27 -33 -6 -33 20 0 26 -12 19 -39 -5 -18 -10 -21 -34
-16 -21 5 -29 3 -29 -7 0 -11 23 -14 114 -14 108 1 113 2 99 18 -34 38 -36
240 -3 339 12 35 23 87 25 114 2 28 6 95 10 150 6 92 48 335 60 356 3 4 19 56
36 114 34 124 70 197 136 279 27 32 53 65 58 73 6 8 47 53 93 101 45 48 94
109 108 135 14 27 38 56 55 65 28 16 36 32 23 45 -4 3 -16 2 -26 -4 -14 -8
-23 -8 -31 0 -6 6 -23 11 -38 11 -15 0 -31 5 -34 10 -9 14 -27 12 -23 -2z"/>
<path d="M320 2370 c0 -11 7 -20 15 -20 8 0 15 9 15 20 0 11 -7 20 -15 20 -8
0 -15 -9 -15 -20z"/>
<path d="M498 2372 c-26 -5 -22 -19 7 -24 14 -3 25 -1 25 4 0 5 5 6 10 3 6 -3
10 -2 10 3 0 12 -29 19 -52 14z"/>
<path d="M1290 2350 c0 -17 7 -20 43 -20 40 0 67 13 67 32 0 4 -25 8 -55 8
-48 0 -55 -2 -55 -20z"/>
<path d="M420 2335 c-17 -20 -11 -25 18 -14 13 5 20 13 17 19 -9 14 -21 12
-35 -5z"/>
<path d="M586 2311 c-21 -23 -6 -37 23 -21 12 6 18 16 15 25 -8 20 -17 19 -38
-4z"/>
<path d="M175 2304 c-21 -21 -1 -38 26 -21 13 8 22 7 36 -3 10 -8 7 -2 -6 13
-29 32 -34 33 -56 11z"/>
<path d="M2054 2307 c-3 -9 -3 -24 0 -33 5 -14 7 -14 21 0 16 16 20 27 9 25
-4 0 -10 5 -15 12 -6 11 -9 10 -15 -4z"/>
<path d="M2951 2293 c0 -15 3 -22 6 -15 2 6 9 10 13 7 5 -3 11 -1 15 4 3 6 -4
15 -15 21 -18 10 -20 8 -19 -17z"/>
<path d="M2535 2294 c19 -11 55 -19 95 -20 l65 -2 -35 15 c-19 8 -62 17 -95
20 l-60 4 30 -17z"/>
<path d="M2760 2262 c0 -15 24 -32 47 -32 33 0 28 16 -8 29 -38 13 -39 13 -39
3z"/>
<path d="M1998 2253 c-10 -2 -18 -9 -18 -14 0 -6 8 -9 18 -7 9 1 23 -1 30 -6
7 -4 16 -5 19 -2 7 6 -16 37 -26 35 -3 -1 -14 -3 -23 -6z"/>
<path d="M2852 2228 c4 -11 84 -57 101 -58 20 0 2 18 -43 43 -56 30 -63 32
-58 15z"/>
<path d="M98 2225 c-10 -10 3 -43 19 -49 11 -5 13 -1 8 17 -9 27 -19 39 -27
32z"/>
<path d="M444 2219 c-3 -5 -2 -13 1 -19 10 -16 33 -12 44 9 9 16 7 19 -14 19
-14 0 -28 -4 -31 -9z"/>
<path d="M1708 2218 c7 -7 12 -20 12 -30 0 -23 27 -35 43 -19 9 10 6 18 -16
37 -29 25 -62 35 -39 12z"/>
<path d="M1495 2200 c-9 -14 1 -27 25 -33 22 -6 27 12 8 31 -15 15 -25 15 -33
2z"/>
<path d="M2060 2195 c-11 -13 -8 -15 20 -15 28 0 31 2 20 15 -7 8 -16 15 -20
15 -4 0 -13 -7 -20 -15z"/>
<path d="M411 2181 c-8 -5 -11 -16 -8 -25 9 -24 22 -19 25 9 2 28 2 28 -17 16z"/>
<path d="M550 2175 c0 -8 9 -15 20 -15 11 0 20 7 20 15 0 8 -9 15 -20 15 -11
0 -20 -7 -20 -15z"/>
<path d="M1261 2140 c-24 -40 -22 -32 -25 -125 -2 -64 1 -75 34 -130 45 -75
84 -163 104 -235 15 -54 38 -213 37 -258 -1 -12 12 -40 28 -62 16 -22 32 -57
36 -77 4 -20 20 -56 37 -79 26 -36 29 -49 24 -78 -6 -31 -4 -36 13 -36 19 0
71 -52 71 -71 0 -6 -5 -19 -10 -29 -8 -16 -6 -22 16 -36 20 -14 25 -23 21 -44
-4 -19 1 -34 20 -55 l26 -28 19 23 c20 25 23 40 7 40 -5 0 -7 4 -4 10 3 5 0 8
-7 5 -15 -5 -58 86 -58 122 0 18 -38 75 -61 93 -4 3 -12 24 -18 46 -6 23 -18
47 -26 54 -8 7 -15 21 -15 31 0 10 -4 21 -10 24 -5 3 -10 16 -10 27 0 12 -18
43 -39 68 -41 48 -46 82 -15 94 20 8 17 21 -12 53 -16 18 -23 34 -20 48 3 11
6 26 6 34 0 11 4 11 18 -2 14 -13 21 -14 30 -5 9 9 10 6 7 -11 -3 -19 -2 -21
10 -11 8 7 20 10 27 8 7 -3 21 4 30 13 17 18 17 19 -1 29 -15 7 -20 6 -25 -6
-4 -11 -12 -14 -24 -9 -9 4 -30 8 -46 9 -33 3 -49 27 -52 79 -1 20 -14 60 -28
87 -14 28 -24 50 -21 50 3 0 -4 9 -16 21 -16 16 -20 28 -14 55 7 41 -19 94
-47 94 -13 0 -18 8 -19 28 0 15 -2 39 -4 54 -2 15 2 31 8 35 21 14 34 47 27
68 -6 18 -9 17 -29 -15z"/>
<path d="M84 2125 c-9 -23 10 -40 25 -22 9 11 8 17 -4 27 -12 10 -16 9 -21 -5z"/>
<path d="M1134 2067 c64 -72 76 -83 76 -73 0 12 -103 127 -122 137 -13 7 8
-22 46 -64z"/>
<path d="M1620 2133 c1 -14 27 -43 38 -43 6 0 9 6 6 13 -5 14 -44 41 -44 30z"/>
<path d="M1947 2133 c-11 -10 -8 -18 13 -41 31 -33 42 -27 22 13 -17 35 -24
40 -35 28z"/>
<path d="M789 2052 c-32 -19 -43 -30 -35 -38 7 -7 18 -3 36 15 15 14 35 31 46
38 39 24 -3 11 -47 -15z"/>
<path d="M1360 2063 c0 -27 12 -39 47 -51 30 -10 73 -6 73 7 -1 18 -29 41 -44
35 -9 -3 -16 -1 -16 6 0 7 -8 9 -20 5 -11 -4 -20 -2 -20 4 0 6 -4 11 -10 11
-5 0 -10 -8 -10 -17z"/>
<path d="M2135 2040 c3 -5 -4 -10 -16 -10 -18 0 -19 -2 -9 -15 7 -8 19 -15 27
-15 8 0 20 -6 28 -12 45 -44 96 -61 110 -39 4 7 -3 11 -17 11 -20 1 -84 29
-66 30 3 0 -7 14 -24 30 -29 30 -45 39 -33 20z"/>
<path d="M1875 2024 c-9 -14 -15 -15 -33 -5 -22 12 -22 11 -10 -9 17 -27 50
-22 54 8 5 26 2 27 -11 6z"/>
<path d="M1075 2000 c-3 -5 3 -10 15 -10 11 0 33 -12 48 -26 15 -14 35 -30 45
-35 16 -9 17 -8 5 10 -7 12 -18 21 -25 21 -7 0 -13 4 -13 8 0 7 -52 42 -63 42
-3 0 -9 -4 -12 -10z"/>
<path d="M1564 1973 c3 -17 46 -30 46 -13 0 8 -31 30 -43 30 -3 0 -4 -7 -3
-17z"/>
<path d="M246 1955 c-13 -53 22 -49 38 3 6 18 3 22 -12 22 -13 0 -22 -9 -26
-25z"/>
<path d="M1750 1966 c-15 -19 -5 -36 21 -36 22 0 25 22 5 39 -10 9 -16 8 -26
-3z"/>
<path d="M2566 1961 c-3 -4 1 -17 9 -27 8 -10 15 -28 15 -39 1 -20 1 -20 9 0
5 11 7 27 5 35 -1 8 -3 18 -3 21 -1 11 -30 19 -35 10z"/>
<path d="M1401 1928 c-6 -15 -5 -28 2 -37 8 -9 12 -10 15 -2 2 6 15 11 29 11
19 0 24 4 19 16 -3 9 -6 20 -6 25 0 5 -11 9 -25 9 -17 0 -28 -7 -34 -22z"/>
<path d="M83 1896 c-19 -22 -20 -25 -5 -31 16 -6 52 26 52 46 0 17 -27 9 -47
-15z"/>
<path d="M166 1886 c6 -16 34 -30 42 -21 8 7 -19 35 -34 35 -7 0 -11 -6 -8
-14z"/>
<path d="M1219 1832 c20 -22 44 -50 54 -63 l17 -24 -7 30 c-8 36 -60 95 -83
95 -13 0 -9 -9 19 -38z"/>
<path d="M2250 1840 c0 -10 -4 -22 -10 -25 -5 -3 -10 -15 -10 -26 0 -10 -4
-19 -10 -19 -16 0 -12 -20 6 -27 8 -3 23 1 32 10 20 21 25 94 6 101 -9 3 -14
-2 -14 -14z"/>
<path d="M67 1805 c-5 -11 -1 -12 16 -6 33 12 48 3 41 -25 -5 -20 -2 -24 15
-24 12 0 21 5 21 10 0 6 -5 10 -11 10 -7 0 -9 10 -5 25 6 23 4 25 -33 25 -25
0 -41 -5 -44 -15z"/>
<path d="M263 1792 c-27 -4 -28 -8 -8 -28 12 -13 15 -12 25 7 14 24 12 26 -17
21z"/>
<path d="M1655 1759 c-9 -13 -6 -16 25 -23 14 -4 32 -2 40 4 13 9 13 11 0 20
-20 13 -57 13 -65 -1z"/>
<path d="M2900 1730 c-13 -9 -12 -12 4 -25 11 -8 28 -15 38 -15 17 0 17 1 2
25 -18 28 -22 29 -44 15z"/>
<path d="M94 1705 c-9 -22 8 -37 23 -20 10 10 9 16 -2 25 -12 10 -16 9 -21 -5z"/>
<path d="M2691 1682 c-5 -10 -6 -24 -1 -31 6 -11 10 -9 19 7 6 11 11 25 11 31
0 17 -18 13 -29 -7z"/>
<path d="M1677 1653 c-3 -5 -20 -8 -37 -5 -41 6 -39 -15 4 -33 27 -11 39 -12
60 -2 28 13 32 22 16 32 -5 3 -10 1 -10 -6 0 -7 -6 -5 -13 6 -8 10 -17 14 -20
8z"/>
<path d="M1747 1624 c-8 -8 8 -39 33 -64 29 -29 36 -3 9 28 -13 15 -26 30 -30
35 -3 4 -8 4 -12 1z"/>
<path d="M1256 1613 c28 -5 79 -79 88 -125 10 -57 23 -45 16 14 -6 42 -13 57
-43 85 -21 19 -46 32 -59 32 -22 -2 -22 -2 -2 -6z"/>
<path d="M2250 1611 c0 -9 20 -33 42 -50 14 -10 21 -9 42 4 30 20 35 45 7 38
-10 -2 -35 0 -55 5 -20 6 -36 7 -36 3z"/>
<path d="M2597 1613 c-10 -3 -17 -12 -15 -21 4 -21 63 -29 84 -11 13 11 12 14
-8 25 -24 14 -31 15 -61 7z"/>
<path d="M2427 1603 c-4 -3 -7 -15 -7 -25 0 -13 7 -18 25 -18 20 0 25 5 25 25
0 18 -5 25 -18 25 -10 0 -22 -3 -25 -7z"/>
<path d="M2742 1534 c-11 -12 -10 -15 5 -21 10 -3 30 -14 44 -24 l26 -18 1 29
c1 32 -1 35 -38 43 -15 3 -30 0 -38 -9z"/>
<path d="M596 1525 c-3 -8 0 -14 7 -12 7 1 12 -8 11 -20 0 -13 3 -23 8 -23 5
0 22 -21 38 -47 22 -34 27 -50 19 -59 -8 -10 -5 -15 14 -19 24 -7 84 -63 80
-76 -1 -4 5 -5 15 -2 9 2 27 -5 39 -16 12 -12 27 -21 34 -21 8 0 9 -11 4 -37
-4 -21 -9 -52 -10 -69 -1 -17 -5 -36 -9 -43 -13 -21 3 -26 22 -8 14 15 15 19
3 26 -9 6 -10 10 -2 16 9 5 9 11 -1 23 -10 12 -10 14 0 8 7 -4 12 -2 12 5 0
15 10 6 14 -13 2 -7 6 -21 10 -30 4 -9 5 -22 1 -28 -3 -5 1 -17 9 -26 9 -9 13
-20 10 -25 -3 -6 4 -19 17 -30 12 -10 19 -19 15 -19 -4 0 2 -13 13 -29 11 -15
18 -31 14 -35 -3 -3 1 -6 9 -6 11 0 15 -8 14 -25 -1 -28 -14 -33 -23 -9 -3 9
-8 11 -12 6 -6 -9 -55 -15 -110 -13 -21 1 -22 3 -10 18 10 11 10 14 2 9 -8 -4
-13 -2 -13 4 0 7 -7 5 -16 -4 -8 -9 -17 -16 -19 -16 -2 0 -2 28 0 63 l4 62
-13 -49 c-8 -26 -19 -52 -26 -56 -21 -13 71 -48 161 -61 82 -12 87 -12 108 8
l21 20 -21 24 c-24 27 -79 137 -79 157 0 7 -23 61 -51 120 -29 59 -62 139 -75
179 -22 70 -50 133 -59 133 -3 0 1 -11 7 -25 9 -19 9 -28 0 -37 -8 -8 -6 -16
10 -30 19 -16 20 -18 3 -18 -18 0 -18 -1 1 -14 10 -8 16 -18 11 -22 -4 -4 0
-18 8 -31 27 -41 -4 -25 -61 32 -33 33 -52 60 -48 67 4 7 3 8 -4 4 -7 -4 -17
3 -24 18 -6 14 -15 26 -19 26 -7 0 -22 33 -24 51 0 3 -7 13 -17 22 -14 14 -17
14 -22 2z"/>
<path d="M2597 1473 c-4 -3 -2 -12 4 -20 9 -10 8 -13 -4 -13 -10 0 -13 -6 -10
-20 3 -11 0 -20 -6 -20 -19 0 4 -33 37 -53 39 -22 48 -4 19 37 -16 22 -18 32
-9 46 8 14 7 21 -7 34 -10 9 -21 13 -24 9z"/>
<path d="M2840 1453 c0 -10 5 -25 10 -33 13 -20 44 -2 48 29 3 18 -2 21 -27
21 -23 0 -31 -5 -31 -17z"/>
<path d="M2215 1435 c-11 -11 -20 -23 -20 -27 0 -3 -3 -9 -7 -13 -4 -4 0 -18
9 -32 l17 -25 17 35 c12 22 16 43 11 58 l-7 25 -20 -21z"/>
<path d="M2443 1453 c-18 -7 -16 -33 1 -33 25 0 46 12 46 26 0 14 -23 17 -47
7z"/>
<path d="M550 1446 c0 -2 27 -18 61 -36 34 -17 58 -27 55 -22 -3 5 -19 15 -36
22 -17 7 -27 17 -23 24 3 6 3 8 -1 4 -5 -4 -19 -3 -32 2 -13 5 -24 8 -24 6z"/>
<path d="M2090 1421 c-7 -14 -7 -22 1 -27 10 -6 28 11 29 28 0 17 -20 17 -30
-1z"/>
<path d="M94 1406 c-4 -10 -2 -22 4 -28 8 -8 13 -7 18 6 4 10 2 22 -4 28 -8 8
-13 7 -18 -6z"/>
<path d="M1214 1405 c3 -8 1 -15 -4 -15 -6 0 -10 5 -10 10 0 6 -12 10 -26 10
-35 0 -21 -18 21 -26 19 -3 33 -9 30 -13 -2 -4 24 -9 57 -10 34 -1 66 -5 71
-8 6 -3 7 -1 3 5 -4 7 -3 12 3 12 6 0 7 8 4 17 -4 9 -8 12 -10 7 -4 -12 -93 6
-93 18 0 5 -5 8 -11 8 -5 0 -7 -4 -4 -10 3 -5 1 -10 -4 -10 -6 0 -11 5 -11 10
0 6 -5 10 -11 10 -6 0 -9 -7 -5 -15z"/>
<path d="M2785 1380 c-3 -5 8 -18 25 -30 l30 -22 -11 26 c-13 27 -35 41 -44
26z"/>
<path d="M2970 1368 l-25 -9 25 -21 c22 -18 25 -18 28 -4 7 34 -2 44 -28 34z"/>
<path d="M2368 1313 c-43 -5 -52 -29 -14 -39 16 -4 22 -11 19 -23 -6 -25 11
-84 26 -89 9 -3 11 2 6 17 -4 13 -1 28 6 37 11 13 10 18 -4 25 -23 13 -22 29
2 29 10 0 24 7 31 15 10 12 16 13 26 4 8 -6 14 -17 14 -25 0 -19 19 -27 35
-14 10 9 15 7 20 -9 4 -14 -2 -32 -18 -53 -21 -27 -57 -100 -57 -114 0 -16 22
5 59 56 24 33 47 60 51 60 5 0 27 15 49 34 23 19 50 38 61 41 31 10 22 37 -17
49 -19 6 -23 4 -23 -13 0 -11 -9 -25 -19 -31 -27 -14 -31 -13 -31 10 0 12 -8
21 -22 24 -40 7 -67 5 -74 -6 -4 -6 -9 -7 -13 -1 -8 13 -66 21 -113 16z"/>
<path d="M2837 1298 c-8 -28 -5 -31 18 -14 10 7 15 18 11 24 -11 18 -23 14
-29 -10z"/>
<path d="M2212 1294 c-11 -12 -9 -22 17 -62 32 -50 108 -132 123 -132 15 0 8
22 -18 53 -20 23 -22 32 -12 38 10 7 10 9 1 9 -7 0 -13 8 -13 18 0 13 -8 18
-27 17 -23 0 -28 5 -36 38 -10 40 -15 44 -35 21z"/>
<path d="M2925 1242 c8 -38 -23 -67 -62 -58 -18 4 -23 3 -15 -2 11 -7 10 -10
-3 -16 -23 -9 -25 -8 -25 9 0 19 -28 8 -32 -13 -3 -11 8 -23 31 -34 19 -10 35
-17 35 -15 11 33 27 42 74 40 41 -2 51 0 55 16 2 11 -3 24 -14 32 -10 7 -16
16 -13 20 7 12 -6 37 -23 43 -12 5 -13 0 -8 -22z"/>
<path d="M2708 1239 c-10 -6 -18 -16 -18 -23 0 -8 -10 -21 -22 -29 -46 -31
-105 -96 -110 -121 -7 -37 6 -32 48 19 20 25 45 45 55 45 11 0 19 5 19 12 0 6
12 26 26 45 29 38 30 68 2 52z"/>
<path d="M2160 1215 c0 -2 9 -20 21 -39 19 -33 50 -41 49 -12 -1 10 -70 61
-70 51z"/>
<path d="M75 1120 c-3 -5 -15 -10 -26 -10 -10 0 -19 -5 -19 -10 0 -7 14 -8 38
-4 45 8 54 13 47 25 -8 12 -32 12 -40 -1z"/>
<path d="M2663 1066 c-15 -24 -32 -35 -57 -40 -20 -4 -36 -9 -36 -13 0 -3 18
-23 40 -44 34 -33 44 -38 60 -29 24 13 25 18 3 42 -13 14 -14 21 -5 30 7 7 12
22 12 34 0 13 5 26 10 29 6 3 10 10 10 16 0 18 -15 8 -37 -25z"/>
<path d="M556 1082 c-3 -5 4 -16 15 -25 13 -11 19 -13 19 -4 0 9 3 8 9 -2 6
-9 11 -10 15 -2 4 6 13 9 19 5 7 -3 3 1 -7 10 -10 8 -23 13 -27 10 -5 -3 -9 0
-9 5 0 13 -27 15 -34 3z"/>
<path d="M1035 1079 c-9 -13 0 -22 26 -26 16 -2 20 1 15 13 -3 8 -6 18 -6 20
0 9 -29 3 -35 -7z"/>
<path d="M2220 1079 c0 -5 6 -9 13 -9 8 0 8 -3 -2 -9 -11 -7 -7 -12 15 -25 16
-8 24 -15 17 -16 -30 -1 28 -80 58 -80 33 0 32 22 -2 54 -19 17 -39 43 -46 57
-11 25 -53 47 -53 28z"/>
<path d="M6 1043 c8 -32 24 -55 24 -32 0 26 -12 59 -21 59 -5 0 -6 -12 -3 -27z"/>
<path d="M2370 1059 c0 -6 -7 -9 -15 -5 -22 8 -18 -5 14 -44 16 -19 33 -32 37
-27 4 4 -3 18 -15 31 -23 24 -23 25 -2 19 27 -7 28 13 1 27 -15 8 -20 8 -20
-1z"/>
<path d="M103 1034 c-30 -23 -45 -64 -25 -64 10 0 56 61 58 78 3 15 5 16 -33
-14z"/>
<path d="M640 1040 l-25 -20 23 -6 c12 -4 22 -11 22 -16 0 -5 5 -6 11 -2 8 4
3 12 -12 21 -13 7 -17 13 -9 12 8 -1 23 -1 33 0 16 1 17 3 3 16 -18 18 -16 19
-46 -5z"/>
<path d="M423 1035 c0 -8 4 -12 9 -9 4 3 12 -6 18 -20 5 -14 14 -26 19 -26 5
0 33 -23 62 -50 30 -28 64 -53 76 -56 13 -4 20 -10 17 -15 -3 -5 4 -9 16 -9
12 0 19 -4 16 -9 -6 -9 22 -26 37 -23 4 1 7 -3 7 -8 0 -6 9 -10 19 -10 11 0
23 -4 26 -10 3 -5 15 -10 26 -10 10 0 19 -6 19 -12 0 -18 45 -37 61 -27 17 10
-14 38 -70 64 -22 10 -38 22 -35 26 3 5 -5 8 -18 6 -12 -1 -23 3 -23 10 0 15
-15 30 -15 14 0 -8 -9 -7 -30 6 -16 9 -30 22 -30 27 0 5 -3 6 -6 3 -9 -9 -49
20 -49 36 0 6 -9 11 -19 9 -11 -2 -15 1 -11 7 3 6 -1 11 -10 11 -10 0 -13 5
-9 12 4 7 3 8 -5 4 -6 -4 -14 0 -17 8 -3 9 -12 16 -20 16 -7 0 -17 6 -21 13
-4 6 -15 18 -24 24 -13 10 -16 10 -16 -2z"/>
<path d="M2779 1040 c-1 -8 -1 -18 -1 -21 1 -4 -9 -10 -22 -13 -17 -4 -25 -15
-28 -36 -6 -38 2 -38 36 1 20 23 32 28 49 23 20 -5 20 -5 6 7 -9 8 -21 23 -27
34 -8 15 -12 16 -13 5z"/>
<path d="M2040 1022 c0 -10 16 -31 35 -47 19 -17 35 -38 35 -47 0 -23 17 -23
29 0 13 24 3 62 -14 56 -7 -3 -15 1 -18 9 -3 8 -19 22 -36 30 -28 14 -31 14
-31 -1z"/>
<path d="M2488 1021 c-36 -12 -50 -23 -57 -43 -14 -39 5 -46 26 -10 9 16 32
35 50 41 18 7 33 17 33 22 0 5 -1 8 -2 8 -2 -1 -24 -9 -50 -18z"/>
<path d="M730 979 c0 -5 -4 -8 -9 -4 -5 3 -12 1 -16 -5 -3 -5 1 -10 10 -10 9
0 14 -4 10 -9 -3 -5 -1 -12 4 -16 6 -3 8 4 6 16 -3 16 0 19 12 15 13 -5 14 -4
3 9 -15 18 -20 19 -20 4z"/>
<path d="M1949 964 c-12 -23 -11 -28 6 -40 24 -18 75 -20 57 -2 -7 7 -12 20
-12 30 0 9 -8 22 -19 27 -15 8 -21 5 -32 -15z"/>
<path d="M2940 968 c0 -4 -7 -14 -16 -23 -12 -11 -20 -13 -29 -5 -7 6 -26 10
-42 8 -16 -1 -34 1 -40 5 -10 6 -26 -52 -17 -62 7 -8 106 21 138 40 36 21 52
15 59 -21 3 -16 5 -8 6 20 1 44 0 45 -29 45 -16 0 -30 -3 -30 -7z"/>
<path d="M2185 950 c-3 -5 -3 -10 2 -10 4 0 1 -5 -7 -11 -11 -8 -12 -12 -2
-16 6 -2 12 -11 12 -19 0 -8 5 -14 10 -14 13 0 13 67 1 75 -5 3 -12 1 -16 -5z"/>
<path d="M2497 934 c-11 -14 -17 -26 -15 -28 1 -1 10 -7 19 -14 15 -11 17 -8
21 28 4 46 0 49 -25 14z"/>
<path d="M2230 921 c0 -11 29 -35 35 -29 10 9 -7 38 -21 38 -8 0 -14 -4 -14
-9z"/>
<path d="M1561 899 c-1 -9 -15 -32 -33 -50 -17 -19 -46 -56 -63 -84 -54 -84
-143 -153 -179 -139 -8 3 -17 1 -21 -5 -16 -26 30 -20 87 11 52 28 76 51 136
129 40 52 76 99 80 104 18 23 25 38 14 31 -5 -3 -13 0 -15 6 -4 8 -6 7 -6 -3z"/>
<path d="M1870 905 c0 -2 5 -15 11 -28 8 -18 8 -30 -1 -47 -14 -27 -6 -35 50
-44 27 -4 40 -13 49 -32 6 -15 14 -24 18 -21 3 4 0 13 -7 22 -17 21 -7 29 20
15 27 -15 34 -9 16 15 -8 11 -26 18 -43 18 -26 0 -33 7 -52 48 -13 26 -31 49
-42 52 -10 3 -19 4 -19 2z"/>
<path d="M2040 898 c0 -13 39 -68 40 -57 0 3 -5 20 -11 38 -11 31 -29 43 -29
19z"/>
<path d="M2552 898 c-15 -15 -15 -28 -1 -28 11 0 39 24 39 34 0 11 -26 6 -38
-6z"/>
<path d="M2680 875 c-10 -27 -13 -29 -24 -12 -16 21 -26 22 -26 2 0 -8 14 -28
31 -44 22 -21 29 -35 24 -50 -4 -14 2 -27 22 -45 34 -31 39 -32 46 -5 8 29
-13 60 -35 53 -17 -5 -24 11 -19 40 1 4 -4 14 -10 22 -9 11 -9 18 1 29 6 8 10
20 7 27 -3 7 -10 0 -17 -17z"/>
<path d="M2964 869 c-3 -6 -18 -9 -33 -6 -23 5 -27 2 -29 -19 -2 -27 10 -31
31 -10 8 8 26 13 41 12 20 -3 26 1 26 15 0 21 -25 26 -36 8z"/>
<path d="M1220 861 c0 -5 -14 -14 -30 -21 -17 -7 -29 -15 -26 -17 2 -3 13 0
24 6 12 6 22 7 28 1 6 -6 10 0 12 15 1 14 0 25 -3 25 -3 0 -5 -4 -5 -9z"/>
<path d="M1387 853 c4 -10 2 -14 -5 -9 -6 3 -13 2 -17 -4 -3 -5 -14 -10 -25
-10 -10 0 -20 -7 -24 -15 -4 -10 1 -15 15 -15 12 0 17 4 13 11 -4 8 0 9 15 4
13 -4 21 -2 21 5 0 6 4 9 8 6 4 -2 14 -1 22 5 10 6 11 9 3 9 -7 0 -13 7 -13
15 0 8 -4 15 -10 15 -5 0 -6 -7 -3 -17z"/>
<path d="M1798 851 c-9 -10 -19 -29 -23 -42 -4 -13 -12 -29 -17 -36 -5 -7 -7
-17 -3 -23 4 -6 21 2 45 21 35 28 37 33 29 61 -11 40 -12 41 -31 19z"/>
<path d="M2437 863 c-4 -3 -7 -13 -7 -22 0 -21 67 -44 78 -26 4 7 14 14 22 17
10 4 4 8 -15 12 -16 4 -38 11 -47 17 -21 11 -23 11 -31 2z"/>
<path d="M2174 835 c-9 -14 -14 -28 -11 -31 8 -8 56 29 57 44 0 21 -29 13 -46
-13z"/>
<path d="M2762 831 c0 -17 7 -36 19 -47 18 -17 19 -16 19 15 0 27 -18 61 -33
61 -2 0 -4 -13 -5 -29z"/>
<path d="M1537 739 c-69 -90 -86 -119 -70 -119 20 0 123 143 123 169 0 5 5 11
12 13 6 2 9 9 7 15 -2 5 -34 -29 -72 -78z"/>
<path d="M1075 794 c-20 -20 -20 -30 0 -14 21 17 31 5 14 -17 -10 -12 -10 -15
-1 -9 9 6 11 1 8 -19 -4 -21 -2 -25 10 -21 9 3 14 0 13 -7 -3 -19 12 -48 22
-41 5 3 9 2 9 -3 0 -4 14 -9 30 -10 29 -2 75 -33 50 -33 -6 0 -9 -4 -5 -9 3
-5 1 -12 -5 -16 -5 -3 -10 -20 -10 -36 0 -17 4 -28 9 -24 5 3 12 1 15 -4 4 -5
-24 -19 -61 -32 -83 -27 -121 -45 -151 -72 -20 -18 -24 -19 -32 -7 -8 12 -10
11 -10 -6 0 -24 -24 -49 -39 -40 -5 4 -12 2 -16 -4 -3 -5 -17 -10 -31 -10 -16
0 -24 -6 -24 -17 0 -29 -16 -45 -44 -46 -15 0 -29 -4 -32 -8 -3 -5 -8 -7 -12
-5 -4 2 -12 -2 -19 -9 -10 -11 -6 -15 19 -20 20 -5 33 -3 38 5 5 9 9 9 14 1
11 -18 23 -13 22 10 -1 16 8 25 29 32 17 5 39 18 51 28 11 11 23 16 27 13 3
-3 17 5 31 19 36 37 127 77 163 72 21 -3 37 3 56 21 14 13 32 24 38 24 7 0 9
3 6 7 -4 3 1 12 11 19 16 12 16 13 -4 31 -33 29 -37 53 -13 79 12 13 18 28 13
35 -5 9 -1 11 15 6 17 -4 33 4 60 29 21 19 44 34 50 34 16 0 13 17 -4 24 -15
6 -55 -13 -55 -25 0 -7 -42 -21 -48 -16 -2 1 -8 -6 -13 -15 -7 -13 -22 -18
-54 -18 -46 0 -74 18 -76 48 0 9 -2 30 -2 46 -2 36 -38 53 -62 30z"/>
<path d="M2258 802 c-19 -4 -24 -27 -9 -37 6 -3 15 4 21 16 13 24 12 27 -12
21z"/>
<path d="M2330 798 c0 -12 -30 -34 -82 -63 -10 -5 -16 -15 -14 -22 3 -6 -6
-19 -20 -27 -36 -24 -29 -36 11 -18 19 9 35 20 35 25 0 4 4 5 10 2 5 -3 12 5
16 19 3 14 15 27 30 30 13 4 24 11 24 16 0 6 7 10 15 10 18 0 19 -14 3 -43 -7
-12 -13 -28 -14 -36 -6 -35 -28 -70 -47 -76 -20 -6 -20 -8 -4 -12 12 -3 34 8
58 27 28 22 45 29 60 25 16 -5 20 -3 17 6 -3 8 -17 16 -33 19 -25 5 -27 6 -12
19 14 11 20 11 32 1 9 -7 18 -10 21 -7 9 9 -15 46 -37 57 -11 6 -24 22 -29 36
-10 25 -40 34 -40 12z"/>
<path d="M846 787 c10 -6 27 -11 38 -12 18 -1 50 -68 38 -80 -3 -3 0 -5 6 -5
7 0 12 1 12 3 0 13 -33 97 -38 98 -4 1 -22 2 -41 4 -29 2 -32 1 -15 -8z"/>
<path d="M1233 789 c1 -6 -4 -14 -12 -17 -9 -3 -11 0 -6 8 5 9 4 11 -3 6 -20
-12 -13 -28 10 -24 23 3 39 38 19 38 -6 0 -10 -5 -8 -11z"/>
<path d="M2923 787 c-3 -5 -18 -6 -34 -3 -21 4 -29 2 -29 -9 0 -11 9 -14 37
-10 39 5 79 32 48 32 -9 0 -18 -5 -22 -10z"/>
<path d="M2062 772 c2 -10 11 -16 23 -14 26 5 47 -25 34 -49 -12 -24 7 -26 32
-3 16 14 16 17 -5 38 -11 12 -36 28 -54 34 -30 10 -33 9 -30 -6z"/>
<path d="M2965 750 c-10 -11 -29 -20 -42 -20 -14 0 -23 -6 -23 -16 0 -11 5
-14 16 -10 9 3 27 6 40 6 15 0 23 4 19 10 -4 6 -1 18 6 26 19 23 4 27 -16 4z"/>
<path d="M2450 735 c0 -8 5 -15 10 -15 6 0 10 -13 10 -29 0 -21 8 -36 29 -50
35 -25 41 -26 41 -5 0 11 6 15 20 11 25 -6 25 0 0 27 -10 11 -29 32 -40 46
-14 17 -23 21 -26 13 -8 -18 -24 -16 -24 2 0 8 -4 15 -10 15 -5 0 -10 -7 -10
-15z"/>
<path d="M1881 720 c-13 -11 -29 -20 -37 -20 -27 0 -14 -15 39 -44 28 -16 65
-40 80 -53 33 -27 47 -29 47 -8 0 8 9 15 20 15 11 0 20 5 20 10 0 6 -11 8 -25
4 -18 -4 -32 -1 -45 11 -10 9 -24 14 -29 10 -6 -3 -21 1 -33 9 -23 16 -19 20
20 16 22 -1 30 14 12 25 -17 10 -11 27 8 21 59 -17 75 -19 70 -5 -3 9 -21 14
-51 14 -25 1 -49 4 -53 8 -11 10 -16 8 -43 -13z"/>
<path d="M2594 729 c-4 -7 0 -17 8 -23 8 -6 13 -16 11 -23 -2 -6 1 -14 7 -18
8 -5 10 5 8 31 -3 38 -20 55 -34 33z"/>
<path d="M2067 714 c-4 -4 0 -16 10 -26 22 -24 13 -30 -26 -17 -24 9 -35 9
-44 0 -8 -8 -4 -11 17 -11 15 0 34 -7 42 -15 9 -8 29 -15 45 -15 34 0 34 -1
14 -40 -13 -26 -42 -50 -59 -50 -12 0 -6 28 7 33 6 3 3 6 -8 6 -44 1 -48 -16
-8 -39 52 -31 92 -69 111 -105 8 -17 17 -25 19 -17 3 6 -6 32 -20 56 -13 24
-21 49 -17 56 4 6 6 30 5 53 -2 26 3 48 12 59 13 15 13 16 -8 11 -18 -5 -29 2
-54 31 -17 20 -34 34 -38 30z"/>
<path d="M2787 703 c-10 -10 -8 -83 2 -83 4 0 7 13 5 30 -2 16 1 32 6 35 6 3
10 10 10 16 0 10 -14 12 -23 2z"/>
<path d="M2246 665 c-21 -22 -21 -22 14 -17 17 2 29 9 27 15 -6 18 -24 19 -41
2z"/>
<path d="M2697 643 l6 -38 -24 20 c-13 11 -26 23 -29 27 -3 3 -18 4 -33 1 -19
-4 -25 -9 -18 -17 13 -16 24 -76 14 -76 -5 0 -14 5 -21 12 -7 7 -12 8 -12 3 1
-23 18 -33 75 -45 76 -15 75 -15 66 -47 -4 -16 -3 -50 2 -77 6 -35 5 -51 -3
-56 -9 -5 -9 -9 -1 -14 23 -15 33 6 26 58 -4 28 -9 59 -12 69 -4 16 -1 18 17
12 19 -6 21 -5 11 13 -6 11 -16 22 -23 24 -7 3 -14 20 -16 39 -3 43 -8 100
-10 117 -1 6 -6 12 -11 12 -6 0 -7 -17 -4 -37z m-45 -26 c7 -8 23 -19 36 -26
21 -11 29 -40 15 -54 -7 -8 -52 18 -70 41 -15 18 -17 52 -4 52 5 0 16 -6 23
-13z"/>
<path d="M504 658 c3 -9 0 -19 -7 -22 -7 -2 -4 -5 6 -5 9 -1 17 -5 17 -11 0
-5 6 -9 13 -7 6 1 11 -4 9 -11 -1 -8 1 -11 6 -8 4 2 28 -4 52 -15 24 -11 64
-25 89 -31 25 -6 49 -15 52 -20 3 -5 15 -11 25 -13 10 -2 20 -4 22 -5 1 -2 10
-3 20 -4 9 -1 26 -6 37 -12 11 -5 34 -9 50 -8 17 1 43 2 59 3 28 1 29 2 10 15
-13 10 -23 11 -31 4 -9 -7 -13 -7 -13 2 0 8 -9 10 -27 5 -23 -5 -25 -4 -14 9
10 12 9 15 -8 13 -12 -1 -21 -4 -21 -7 0 -4 -7 -7 -15 -7 -8 0 -15 4 -15 9 0
5 -10 6 -21 3 -16 -5 -19 -4 -14 5 5 9 1 10 -15 5 -15 -5 -20 -4 -16 4 6 9 -6
13 -30 10 -4 0 -10 3 -13 8 -11 15 -62 34 -73 27 -7 -4 -8 -2 -4 4 4 7 1 13
-8 13 -20 2 -25 3 -59 17 -16 7 -32 12 -37 12 -5 0 -14 8 -20 18 -10 15 -11
15 -6 0z"/>
<path d="M1443 613 c-7 -3 -13 -11 -13 -19 0 -8 -6 -14 -12 -14 -10 0 -9 -3 1
-9 11 -7 9 -10 -8 -16 -24 -7 -28 -25 -6 -25 8 0 15 5 15 10 0 6 3 9 8 9 4 -1
16 -1 27 1 20 1 20 1 0 10 -15 7 -16 9 -4 9 9 1 19 10 22 20 5 20 -9 31 -30
24z"/>
<path d="M2400 591 c0 -28 19 -36 35 -15 10 14 10 21 2 26 -21 14 -37 8 -37
-11z"/>
<path d="M2803 579 c3 -20 1 -42 -3 -50 -5 -7 -5 -18 0 -24 4 -5 5 -31 1 -57
-5 -27 -4 -48 1 -48 4 0 8 -7 8 -15 0 -8 -9 -15 -20 -15 -11 0 -20 -4 -20 -10
0 -5 9 -10 20 -10 18 0 20 -7 20 -67 0 -61 -1 -65 -15 -47 -11 15 -15 16 -16
4 -1 -8 -4 -2 -8 14 -7 35 -26 45 -34 16 -3 -11 -1 -18 4 -14 5 3 9 -4 9 -15
0 -25 -6 -26 -26 -6 -14 14 -46 20 -86 16 -12 -2 -18 5 -18 18 0 11 -9 22 -20
26 -11 3 -26 12 -34 20 -11 12 -13 8 -12 -22 2 -38 30 -68 54 -58 8 3 38 -2
68 -11 30 -9 61 -13 69 -11 7 3 16 3 19 -1 4 -3 13 -7 20 -8 13 -2 113 -72
184 -130 l32 -26 0 24 c0 16 -9 27 -30 36 -38 17 -58 51 -39 63 11 7 10 9 -3
9 -9 0 -20 -4 -23 -10 -10 -17 -45 -12 -39 5 4 8 1 15 -5 15 -6 0 -12 19 -12
43 l-2 42 -7 -40 -7 -40 -4 55 c-7 107 -4 245 6 253 6 6 6 10 -2 14 -7 2 -13
19 -13 36 0 18 -5 39 -11 47 -8 11 -9 6 -6 -21z"/>
<path d="M2253 585 c-7 -8 -21 -19 -30 -24 -16 -9 -16 -12 -3 -21 19 -12 70
34 55 49 -6 6 -15 4 -22 -4z"/>
<path d="M2516 592 c-3 -5 4 -18 15 -28 21 -19 21 -19 18 5 -4 25 -23 39 -33
23z"/>
<path d="M2356 583 c-3 -3 -6 -27 -6 -52 0 -51 14 -45 24 11 6 34 -3 56 -18
41z"/>
<path d="M2892 559 c-7 -10 -19 -19 -27 -19 -8 0 -15 -5 -15 -11 0 -6 10 -9
21 -7 24 3 55 43 42 51 -5 3 -14 -3 -21 -14z"/>
<path d="M202 563 c-6 -3 -9 -10 -5 -16 4 -7 0 -8 -11 -4 -37 15 -64 18 -69
10 -3 -5 8 -10 26 -11 17 -2 37 -7 44 -13 9 -8 14 -7 19 5 3 9 10 14 14 11 5
-3 11 -1 14 4 7 11 -14 20 -32 14z"/>
<path d="M2428 530 c-16 -29 -16 -30 2 -40 16 -9 18 -8 14 5 -4 8 -1 22 6 31
8 9 10 18 4 24 -6 6 -16 -3 -26 -20z"/>
<path d="M2525 518 c22 -24 41 -44 42 -46 1 -2 6 -1 11 2 18 11 1 46 -23 46
-14 0 -25 7 -28 20 -3 11 -13 20 -23 20 -14 0 -9 -10 21 -42z"/>
<path d="M76 531 c-3 -5 4 -11 15 -14 12 -3 18 -10 14 -16 -3 -7 2 -11 14 -11
11 0 23 6 27 13 4 6 4 9 -1 5 -4 -4 -20 2 -36 12 -15 11 -30 16 -33 11z"/>
<path d="M184 494 c5 -14 -74 -28 -103 -19 -10 3 -24 -1 -31 -10 -9 -11 -17
-12 -32 -4 -16 9 -19 8 -16 -2 7 -22 51 -28 72 -10 13 10 17 11 12 3 -7 -12
-4 -12 14 -2 18 9 24 9 30 0 6 -9 9 -9 12 1 2 7 21 14 42 15 21 1 42 8 47 15
6 10 11 11 17 3 4 -6 15 -13 24 -17 15 -5 16 -3 7 17 -9 19 -18 23 -55 22 -29
-1 -43 -5 -40 -12z"/>
<path d="M2495 490 c5 -14 11 -40 16 -58 7 -34 16 -49 23 -41 7 7 -21 100 -34
112 -10 10 -11 7 -5 -13z"/>
<path d="M2252 454 c0 -18 -3 -41 -7 -53 -4 -15 -2 -21 8 -21 9 0 17 13 20 33
3 17 8 41 12 52 5 16 2 21 -13 21 -16 0 -20 -7 -20 -32z"/>
<path d="M2872 475 c-42 -23 -48 -34 -16 -31 15 2 30 8 32 15 6 19 22 12 22
-11 0 -20 1 -20 19 -4 13 12 27 15 47 10 29 -7 29 -7 10 14 -14 16 -23 19 -37
12 -12 -7 -20 -7 -24 0 -8 13 -24 11 -53 -5z"/>
<path d="M2630 465 c-21 -25 -1 -31 23 -7 17 18 18 22 5 22 -8 0 -21 -7 -28
-15z"/>
<path d="M1294 438 c-9 -18 -30 -48 -47 -65 -17 -18 -27 -33 -22 -33 4 0 -6
-14 -24 -30 -17 -17 -31 -33 -31 -36 0 -12 -38 -53 -44 -47 -3 3 -6 -1 -6 -10
0 -40 50 -2 112 83 40 55 100 170 89 170 -6 0 -18 -15 -27 -32z"/>
<path d="M70 415 c0 -17 -35 -21 -45 -5 -10 17 -25 11 -25 -10 0 -11 5 -20 12
-20 6 0 22 -9 34 -21 18 -17 22 -18 27 -5 4 9 2 16 -4 16 -6 0 -7 5 -4 10 8
14 38 13 67 -3 21 -10 23 -15 11 -25 -10 -10 -13 -10 -13 2 0 16 -27 29 -35
16 -7 -12 5 -40 19 -40 48 0 124 49 110 71 -8 14 -34 10 -28 -4 3 -8 -4 -13
-16 -14 -12 -1 -24 5 -27 13 -3 7 -9 11 -15 8 -14 -9 -60 5 -53 16 3 6 1 10
-4 10 -6 0 -11 -7 -11 -15z"/>
<path d="M1459 418 c-9 -7 -21 -42 -27 -78 -21 -119 -103 -250 -191 -307 l-45
-28 34 -3 c24 -3 38 2 47 14 7 10 13 15 13 11 0 -4 10 3 23 15 12 13 21 27 19
32 -1 4 9 5 24 2 21 -6 25 -4 21 8 -3 8 -2 16 2 18 11 4 112 210 106 216 -3 3
-14 -5 -25 -18 l-20 -23 6 34 c4 19 12 46 19 62 9 17 10 27 3 27 -6 0 -6 6 2
15 15 18 9 20 -11 3z"/>
<path d="M2638 414 c-24 -12 -38 -34 -23 -34 8 0 85 42 85 46 0 9 -37 2 -62
-12z"/>
<path d="M2856 400 c4 -19 8 -48 9 -63 1 -16 8 -33 16 -38 11 -6 11 -11 2 -20
-9 -9 -9 -16 -2 -25 7 -9 7 -19 -1 -33 -14 -28 -4 -26 32 4 32 27 54 32 61 13
3 -8 6 -6 6 5 1 9 -6 17 -15 17 -12 0 -15 6 -11 21 4 16 3 18 -8 9 -7 -6 -20
-7 -30 -4 -16 7 -16 17 0 58 7 15 5 17 -14 11 -16 -5 -22 -3 -20 7 2 7 -5 27
-14 43 l-18 30 7 -35z"/>
<path d="M1376 404 c-8 -21 1 -34 25 -34 14 0 19 7 19 25 0 29 -34 36 -44 9z"/>
<path d="M2885 411 c-9 -16 15 -23 53 -16 35 8 36 8 12 15 -36 11 -58 11 -65
1z"/>
<path d="M1345 400 c3 -6 -1 -13 -9 -16 -9 -3 -16 -10 -16 -15 0 -5 -12 -28
-27 -52 -15 -23 -27 -44 -28 -47 0 -3 -15 -28 -32 -56 -18 -28 -33 -56 -33
-63 0 -7 -5 -9 -11 -5 -8 4 -8 0 0 -15 14 -25 23 -28 14 -4 -6 16 -5 17 12 3
17 -14 18 -14 7 7 -17 30 -14 42 3 19 18 -24 20 -13 3 17 -10 20 -9 21 5 9 13
-11 16 -10 22 8 3 11 11 18 16 15 5 -3 6 0 3 8 -3 8 2 22 11 31 9 9 14 16 11
16 -3 0 3 9 14 20 12 12 18 25 15 30 -3 5 1 20 9 32 21 34 29 68 16 68 -6 0
-8 -5 -5 -10z"/>
<path d="M1522 400 c4 -12 128 -83 128 -74 0 4 -8 13 -17 20 -11 8 -13 13 -5
14 6 0 12 7 12 16 0 8 -4 12 -10 9 -5 -3 -10 -1 -10 6 0 10 -3 10 -11 2 -8 -8
-22 -8 -51 3 -23 8 -38 9 -36 4z"/>
<path d="M2329 391 c-13 -10 -31 -20 -39 -23 -10 -4 -7 -8 11 -12 21 -6 32 -1
57 23 24 25 27 31 13 31 -10 0 -29 -8 -42 -19z"/>
<path d="M2453 380 c-3 -11 -10 -20 -16 -20 -6 0 -8 -3 -5 -6 9 -8 48 19 48
33 0 21 -21 15 -27 -7z"/>
<path d="M248 383 c-15 -4 -14 -8 10 -29 24 -23 25 -25 5 -19 -12 3 -24 1 -28
-5 -10 -16 -25 -12 -19 5 4 8 1 15 -5 15 -6 0 -11 -4 -11 -8 0 -12 -57 -29
-120 -38 -40 -5 -50 -9 -35 -14 11 -4 26 -3 33 3 9 7 11 6 6 -6 -3 -10 2 -20
16 -27 13 -7 20 -8 16 -2 -3 6 4 14 16 18 12 3 28 13 36 20 16 16 42 19 42 4
0 -5 7 -10 15 -10 8 0 15 5 15 11 0 5 -5 7 -12 3 -7 -5 -8 -3 -3 5 4 8 20 11
36 9 15 -3 26 -1 23 4 -8 13 3 10 36 -10 28 -18 33 -36 6 -26 -7 3 -23 0 -37
-6 -24 -10 -24 -10 4 -5 15 3 27 1 27 -5 0 -5 -6 -10 -12 -10 -7 -1 1 -8 17
-17 17 -9 35 -23 42 -32 16 -21 16 -45 1 -38 -48 19 -51 20 -44 9 5 -8 2 -10
-9 -6 -10 4 -15 2 -13 -7 2 -8 12 -17 23 -21 18 -5 17 -6 -5 -7 -17 -1 -21 -4
-12 -10 20 -12 62 -1 62 17 0 12 3 13 12 4 14 -14 28 -16 28 -3 0 5 -10 31
-21 58 -12 26 -23 62 -25 78 -2 17 -13 38 -24 47 -14 11 -16 18 -8 21 7 2 4 3
-7 1 -11 -2 -31 -1 -43 3 -18 4 -20 8 -11 19 12 14 8 15 -23 7z"/>
<path d="M391 343 c69 -76 131 -116 251 -162 29 -11 35 -17 27 -28 -9 -10 -5
-12 20 -7 25 5 31 3 31 -11 0 -10 3 -16 6 -12 4 3 21 0 40 -8 18 -7 41 -12 51
-11 10 2 32 -1 48 -6 44 -14 175 -9 186 6 4 5 14 -4 24 -20 9 -16 13 -20 10
-9 -4 11 -10 28 -12 38 -4 14 -12 17 -30 12 -16 -4 -22 -2 -18 5 3 5 2 10 -4
10 -5 0 -12 -6 -14 -12 -4 -9 -6 -10 -6 -1 -1 8 -10 9 -30 3 -19 -5 -33 -4
-41 3 -8 8 -14 8 -16 2 -5 -12 -84 -7 -84 5 0 5 -9 9 -20 9 -11 1 -29 1 -40 2
-11 0 -20 5 -20 11 0 6 -3 8 -6 5 -4 -4 -46 13 -93 37 -47 24 -105 52 -128 62
-24 10 -38 21 -32 25 6 3 -4 9 -22 13 -18 3 -29 9 -26 13 7 6 -55 53 -69 53
-4 0 3 -12 17 -27z"/>
<path d="M2000 340 c-7 -17 -32 -51 -56 -76 -24 -24 -38 -44 -31 -44 30 0 121
129 104 146 -2 3 -10 -9 -17 -26z"/>
<path d="M2490 350 c-15 -12 -34 -18 -47 -15 -27 6 -26 7 -12 -34 8 -23 25
-39 61 -57 62 -31 58 -40 -8 -17 -55 20 -70 35 -78 76 -8 38 -33 64 -49 48 -8
-8 -6 -15 10 -26 11 -8 24 -30 27 -49 4 -19 16 -46 27 -60 24 -31 21 -59 -12
-100 -31 -40 -54 -45 -133 -30 -39 8 -84 16 -101 19 l-30 6 28 -25 c23 -21 38
-26 81 -26 30 0 71 -7 92 -16 22 -9 53 -20 69 -24 17 -4 39 -11 50 -15 20 -8
20 -8 0 8 -20 15 -20 15 2 39 18 19 53 95 53 114 0 2 -14 4 -30 4 -18 0 -33 6
-36 15 -11 29 2 33 40 14 25 -12 43 -16 49 -10 12 12 -17 88 -46 119 -13 14
-16 21 -6 17 19 -7 54 19 45 33 -10 16 -17 15 -46 -8z m-30 -252 c0 -7 -9 -24
-19 -38 -16 -20 -22 -22 -34 -12 -13 11 -12 16 7 37 23 27 46 33 46 13z"/>
<path d="M2676 362 c-3 -6 -2 -13 4 -17 5 -3 10 -15 10 -26 0 -10 5 -19 10
-19 14 0 12 33 -3 55 -9 11 -16 14 -21 7z"/>
<path d="M30 242 c-8 -9 -14 -22 -12 -29 2 -7 -2 -13 -8 -13 -5 0 -10 -6 -10
-14 0 -20 39 -31 54 -16 8 9 7 11 -4 10 -37 -5 -45 0 -25 16 16 12 17 17 7 23
-11 7 -11 9 2 14 9 4 23 4 32 0 13 -5 13 -7 2 -15 -8 -5 -2 -6 17 -2 38 9 44
14 17 14 -12 0 -22 5 -22 12 0 6 -3 8 -7 5 -3 -4 -11 -3 -17 2 -7 6 -17 3 -26
-7z"/>
<path d="M246 251 c-4 -5 -3 -16 0 -25 3 -9 1 -16 -5 -16 -8 0 -6 -10 4 -31
16 -30 35 -35 43 -11 2 7 -6 12 -17 12 -19 0 -21 4 -16 40 5 39 2 49 -9 31z"/>
<path d="M1577 212 c-10 -10 -17 -27 -17 -37 0 -10 -7 -23 -17 -30 -13 -9 -13
-14 -3 -20 9 -6 11 -4 5 5 -6 10 -4 12 8 7 12 -5 17 -1 17 13 0 11 4 20 9 20
5 0 11 14 13 30 5 35 6 35 -15 12z"/>
<path d="M120 200 c0 -5 9 -10 19 -10 25 0 37 -18 22 -33 -8 -8 -11 -8 -11 2
0 7 -4 9 -10 6 -5 -3 -19 -1 -30 5 -16 9 -20 8 -20 -5 0 -10 -10 -15 -31 -15
-19 0 -28 -4 -23 -11 4 -6 20 -8 39 -5 18 4 35 3 37 -1 3 -4 3 -2 2 5 -5 17 6
15 23 -5 10 -13 16 -15 19 -5 7 14 34 16 34 2 0 -14 67 -13 76 2 5 7 2 9 -7 6
-8 -3 -23 0 -33 7 -10 8 -24 11 -32 8 -9 -3 -12 2 -9 16 2 14 -1 21 -11 21 -8
0 -12 5 -9 10 4 6 -5 10 -19 10 -14 0 -26 -4 -26 -10z"/>
<path d="M1487 204 c-11 -11 -8 -26 3 -19 21 13 9 -13 -14 -30 -13 -10 -22
-24 -19 -31 3 -9 16 -2 39 21 19 19 34 37 34 41 0 4 -3 4 -7 1 -3 -4 -11 0
-17 9 -6 8 -15 12 -19 8z"/>
<path d="M1864 188 c1 -20 6 -23 34 -20 22 2 41 -3 53 -14 17 -16 19 -16 19
-1 0 10 -5 17 -10 17 -6 0 -30 9 -52 20 -23 11 -43 20 -44 20 0 0 -1 -10 0
-22z"/>
<path d="M2975 200 c-3 -5 1 -20 9 -32 l16 -22 0 26 c0 29 -15 45 -25 28z"/>
<path d="M1100 149 c0 -5 -4 -7 -10 -4 -5 3 -10 3 -10 -1 0 -14 65 -143 73
-143 4 -1 -6 26 -23 59 -31 61 -37 86 -20 75 6 -3 7 1 4 9 -7 18 -14 21 -14 5z"/>
<path d="M572 129 c5 -16 78 -25 78 -10 0 5 -8 9 -17 9 -10 -1 -29 2 -42 6
-17 6 -22 5 -19 -5z"/>
<path d="M2066 121 c-8 -13 -11 -12 38 -17 42 -3 39 10 -5 21 -16 4 -30 2 -33
-4z"/>
<path d="M306 106 c5 -12 -1 -14 -31 -11 -24 3 -35 1 -33 -6 2 -6 7 -10 11
-10 4 1 21 1 37 1 30 0 42 21 20 35 -6 3 -7 -1 -4 -9z"/>
<path d="M393 105 c-12 -8 -30 -12 -40 -9 -13 4 -14 3 -5 -4 11 -7 9 -11 -9
-15 -19 -5 -20 -8 -9 -21 8 -10 8 -16 2 -16 -6 0 -14 5 -17 10 -4 6 -11 8 -16
4 -6 -3 2 -12 17 -20 25 -14 28 -12 61 21 31 32 63 48 48 25 -3 -6 1 -13 10
-16 9 -4 22 -19 31 -35 8 -16 22 -29 30 -29 13 0 12 5 -5 32 -12 18 -29 45
-38 60 -21 32 -30 34 -60 13z"/>
<path d="M21 72 c-8 -16 -7 -21 6 -26 17 -7 35 11 30 28 -6 19 -26 17 -36 -2z"/>
<path d="M520 81 c0 -5 14 -11 30 -13 32 -5 41 6 14 16 -23 9 -44 7 -44 -3z"/>
<path d="M739 85 c-3 -2 -38 -5 -77 -6 -41 -1 -72 -6 -72 -12 0 -6 28 -7 77
-4 73 6 92 11 81 22 -2 3 -7 3 -9 0z"/>
<path d="M2860 65 c0 -9 16 -22 38 -31 20 -8 47 -20 59 -26 11 -6 27 -8 35 -5
7 3 4 6 -8 6 -12 1 -27 8 -34 16 -7 8 -18 15 -25 15 -7 0 -24 9 -39 21 -22 17
-26 18 -26 4z"/>
<path d="M120 58 c0 -6 -3 -9 -6 -5 -7 6 -84 -29 -84 -39 0 -3 5 -2 10 1 6 4
18 1 27 -7 9 -7 14 -8 11 -3 -4 6 2 17 14 24 11 7 17 8 13 2 -4 -7 3 -11 17
-10 13 0 18 3 12 5 -7 3 -10 14 -7 24 3 11 3 20 -1 20 -3 0 -6 -5 -6 -12z"/>
<path d="M218 64 c6 -3 12 -12 12 -20 0 -11 -4 -12 -19 -4 -26 13 -32 13 -28
-2 1 -7 -5 -13 -13 -12 -9 1 -22 -6 -30 -14 -12 -14 -11 -14 11 -7 21 7 48 10
109 15 12 0 10 4 -5 16 -19 16 -19 16 5 10 17 -5 20 -4 10 2 -8 5 -26 12 -40
16 -14 3 -19 3 -12 0z"/>
</g>
</svg>
