<?xml version="1.0" standalone="no"?>
<!DOCTYPE svg PUBLIC "-//W3C//DTD SVG 20010904//EN"
 "http://www.w3.org/TR/2001/REC-SVG-20010904/DTD/svg10.dtd">
<svg version="1.0" xmlns="http://www.w3.org/2000/svg"
 width="300.000000pt" height="441.000000pt" viewBox="0 0 300.000000 441.000000"
 preserveAspectRatio="xMidYMid meet">
<metadata>
Created by potrace 1.10, written by Peter Selinger 2001-2011
</metadata>
<g transform="translate(0.000000,441.000000) scale(0.100000,-0.100000)"
fill="#000000" stroke="none">
<path d="M1671 4393 c-12 -13 -12 -17 3 -25 9 -5 14 -14 10 -19 -9 -16 -13
-259 -3 -259 17 0 22 27 26 171 4 122 3 149 -8 149 -8 -1 -20 -8 -28 -17z"/>
<path d="M1861 4213 c0 -189 7 -251 23 -225 3 6 8 76 10 155 1 79 6 149 10
155 4 7 2 12 -4 12 -8 0 -10 17 -8 47 2 39 0 48 -14 51 -17 3 -18 -11 -17
-195z"/>
<path d="M12 4360 c-18 -29 -15 -39 9 -33 13 4 17 9 10 16 -5 5 -7 16 -4 23 8
20 0 17 -15 -6z"/>
<path d="M105 4339 c-4 -11 -4 -23 -2 -26 9 -8 27 7 27 22 0 23 -18 27 -25 4z"/>
<path d="M1270 4181 c-33 -14 -46 -25 -48 -42 l-3 -24 20 25 c11 14 21 21 21
15 0 -5 5 -2 11 8 12 21 39 23 39 2 0 -18 27 -20 32 -3 2 6 11 12 19 14 7 1
23 6 33 10 15 6 17 4 11 -6 -6 -10 -4 -12 9 -7 17 7 86 -21 86 -34 0 -4 12
-12 28 -18 15 -6 35 -16 46 -23 13 -10 20 -10 23 -2 3 9 10 9 28 0 14 -6 23
-17 20 -24 -3 -7 0 -10 6 -7 6 4 13 -2 16 -14 3 -12 8 -21 12 -21 3 0 20 -13
36 -28 17 -16 36 -27 43 -24 10 3 12 -5 6 -32 -4 -26 -2 -42 8 -54 47 -54 55
-139 23 -225 -20 -54 -65 -98 -93 -90 -17 4 -19 -3 -18 -89 0 -61 -6 -112 -17
-147 -9 -30 -15 -56 -13 -58 5 -6 36 57 36 73 0 7 12 17 28 23 22 9 23 10 3 7
-23 -5 -23 -4 -16 62 8 85 13 102 29 102 8 0 19 7 27 16 7 8 21 13 31 11 15
-4 18 1 18 32 0 20 5 52 10 71 18 59 13 147 -9 191 -25 47 -26 68 -6 75 26 10
18 44 -9 44 -14 0 -33 10 -43 23 -22 29 -139 106 -173 114 -14 3 -42 17 -63
30 -21 13 -41 21 -46 19 -4 -3 -17 1 -27 9 -24 18 -76 19 -93 3 -11 -10 -14
-10 -18 0 -6 15 -8 15 -63 -7z"/>
<path d="M1098 4097 c-11 -9 -14 -18 -7 -28 5 -8 9 -9 9 -3 0 7 11 15 25 18
14 4 23 11 20 16 -8 13 -27 12 -47 -3z"/>
<path d="M1216 4094 c-3 -8 -12 -12 -18 -9 -7 4 -4 -1 7 -10 18 -14 21 -14 32
2 7 9 13 20 13 25 0 15 -28 8 -34 -8z"/>
<path d="M1061 4047 c0 -10 6 -20 14 -24 14 -5 14 -7 0 -23 -12 -14 -13 -20
-4 -26 7 -4 10 -3 5 4 -11 18 33 25 50 7 9 -9 19 -13 23 -9 3 4 0 9 -7 11 -7
3 -18 16 -23 30 -7 18 -14 23 -28 18 -14 -4 -21 0 -24 12 -4 17 -5 17 -6 0z"/>
<path d="M1170 3999 c0 -16 10 -38 23 -50 l22 -23 -27 17 c-28 18 -103 24 -94
8 3 -5 -1 -11 -9 -15 -8 -3 -15 -16 -15 -30 0 -14 -6 -31 -13 -38 -9 -8 -11
-21 -6 -33 7 -19 8 -19 8 2 1 25 21 43 21 18 0 -9 -7 -29 -15 -45 -8 -16 -17
-46 -20 -67 -3 -21 -7 -51 -10 -68 -3 -16 -1 -36 4 -44 8 -12 21 39 26 104 1
11 9 34 18 52 9 17 20 49 23 70 10 64 46 90 78 57 9 -8 16 -11 16 -5 0 12 53
10 84 -4 11 -5 21 -4 25 4 4 7 12 11 17 10 21 -4 26 2 14 16 -14 17 -35 21
-25 5 3 -5 2 -10 -4 -10 -5 0 -12 6 -15 13 -3 6 -3 2 0 -10 3 -13 1 -23 -5
-23 -6 0 -11 7 -11 16 0 9 -5 12 -12 8 -10 -6 -10 -4 -2 7 19 23 0 57 -29 52
-18 -4 -26 0 -29 14 -8 31 -38 24 -38 -8z m48 -23 c27 -20 30 -25 16 -30 -17
-7 -54 23 -54 44 0 14 2 13 38 -14z"/>
<path d="M1316 4020 c-16 -5 -33 -7 -38 -4 -14 9 -9 -13 7 -26 11 -9 15 -9 15
-1 0 7 5 9 11 5 6 -3 15 -1 20 7 6 11 11 10 27 -4 19 -17 20 -17 25 2 7 29
-15 36 -67 21z"/>
<path d="M506 3965 c-10 -8 -16 -19 -14 -25 2 -7 12 -4 26 8 26 23 16 37 -12
17z"/>
<path d="M350 3875 c0 -19 11 -19 36 0 18 14 18 14 -8 15 -18 0 -28 -5 -28
-15z"/>
<path d="M966 3875 c-3 -10 -2 -43 3 -74 6 -31 13 -81 16 -111 3 -30 9 -65 12
-78 6 -24 -14 -82 -28 -82 -12 0 -11 -37 1 -45 6 -3 10 -23 10 -44 0 -51 28
-141 51 -167 10 -11 19 -28 19 -37 0 -9 9 -21 20 -27 11 -6 23 -22 26 -35 3
-14 16 -33 28 -43 32 -25 39 -50 17 -63 -21 -14 -17 -59 6 -59 8 0 12 4 8 10
-3 5 8 16 24 24 38 20 32 46 -24 106 -24 25 -54 66 -67 91 -13 26 -33 65 -45
87 -13 23 -28 72 -34 109 -12 69 -7 92 23 135 10 14 9 24 -5 53 -9 20 -17 51
-17 71 0 19 -7 48 -15 65 -10 18 -14 44 -11 67 5 44 -7 75 -18 47z"/>
<path d="M50 3860 c0 -12 40 -53 46 -47 2 2 -2 15 -9 28 -13 25 -37 37 -37 19z"/>
<path d="M1 3839 c-2 -54 10 -84 43 -106 30 -19 33 -20 43 -4 6 10 9 29 6 44
-5 23 -7 24 -20 12 -27 -28 -49 -13 -62 40 -7 31 -9 34 -10 14z"/>
<path d="M1 3678 c-1 -18 6 -31 20 -38 29 -16 38 -2 13 18 -12 9 -24 24 -27
32 -3 8 -6 3 -6 -12z"/>
<path d="M1310 3688 c0 -8 38 -31 58 -34 6 -1 12 1 12 4 0 4 34 6 75 5 59 -1
75 1 75 13 0 8 -10 14 -22 15 -67 3 -117 1 -129 -6 -6 -5 -10 -4 -6 1 3 5 -10
9 -29 9 -19 0 -34 -3 -34 -7z"/>
<path d="M1162 3680 c-50 -8 -82 -23 -82 -40 0 -5 15 -5 33 0 52 13 117 19
122 10 2 -4 -16 -10 -40 -14 -58 -7 -102 -30 -110 -57 -11 -33 0 -33 34 0 17
17 31 26 31 21 0 -6 16 -10 36 -10 25 0 33 3 28 13 -6 8 -3 8 9 -1 23 -19 36
-7 35 30 -1 32 -18 59 -35 57 -4 -1 -32 -5 -61 -9z"/>
<path d="M1548 3673 c6 -2 12 -10 12 -16 0 -14 39 -41 47 -33 8 7 -44 56 -59
55 -10 0 -10 -2 0 -6z"/>
<path d="M1393 3635 c-36 -26 -27 -39 11 -16 42 26 59 27 26 1 -14 -11 -20
-20 -14 -20 6 0 17 7 24 15 7 8 16 15 21 15 5 0 9 -7 9 -15 0 -8 8 -15 19 -15
10 0 33 -3 51 -7 24 -4 31 -3 26 6 -23 37 -138 61 -173 36z"/>
<path d="M1853 3643 c-9 -3 -13 -35 -13 -111 0 -58 3 -103 6 -99 3 3 9 53 13
111 3 58 6 106 6 105 0 0 -6 -3 -12 -6z"/>
<path d="M1173 3566 c-46 -17 -54 -30 -13 -22 19 3 41 13 50 21 16 17 8 17
-37 1z"/>
<path d="M1358 3518 c-23 -23 -25 -57 -3 -38 8 6 18 9 23 6 16 -9 21 -45 8
-55 -15 -12 -101 -16 -143 -7 -42 10 -42 2 -1 -18 35 -18 84 -21 93 -6 4 6 12
10 18 9 53 -6 76 25 52 71 -9 16 -21 30 -28 30 -8 0 -8 3 2 9 7 5 9 11 5 13
-5 3 -17 -3 -26 -14z"/>
<path d="M1021 3488 c1 -24 4 -34 6 -23 3 11 10 25 15 32 10 13 3 33 -13 33
-5 0 -8 -19 -8 -42z"/>
<path d="M1184 3478 c-35 -40 -74 -103 -74 -121 0 -32 29 -5 65 59 39 69 43
101 9 62z"/>
<path d="M1730 3475 c0 -3 9 -14 21 -26 11 -11 18 -27 15 -35 -3 -8 -1 -14 4
-14 14 0 12 54 -2 68 -12 12 -38 17 -38 7z"/>
<path d="M1757 3334 c-12 -16 -26 -24 -40 -22 -27 4 -46 -43 -43 -105 3 -49
37 -139 67 -181 l22 -29 -52 -50 -52 -50 -27 26 c-35 33 -73 47 -125 47 -43
-1 -95 -22 -89 -36 2 -5 -2 -10 -9 -13 -6 -2 -9 1 -6 6 3 5 0 10 -8 10 -10 0
-12 -4 -5 -12 5 -7 7 -15 3 -18 -11 -11 6 -8 45 9 60 26 86 32 107 23 18 -7
18 -8 -5 -8 -70 -3 -151 -89 -149 -161 1 -32 2 -33 9 -10 8 25 8 25 10 -5 2
-26 3 -24 12 15 5 25 22 61 36 80 15 19 26 38 24 43 -4 13 51 29 78 22 122
-30 121 -30 189 34 38 35 51 33 51 -11 0 -24 -14 -45 -70 -102 -38 -40 -70
-79 -70 -87 0 -8 -5 -21 -11 -29 -8 -12 -9 -10 -4 9 5 16 4 21 -4 16 -7 -4
-18 -1 -26 5 -8 7 -15 9 -15 5 0 -4 -7 -2 -15 5 -8 7 -15 20 -15 30 0 9 -9 29
-21 44 -24 30 -39 24 -64 -24 -14 -26 -13 -27 23 -39 30 -10 41 -21 56 -57 18
-44 18 -45 0 -59 -18 -13 -17 -14 12 -15 33 0 61 24 87 76 9 16 47 62 86 100
58 58 69 74 65 95 -5 19 -3 21 5 9 8 -12 11 -5 11 30 0 33 -3 41 -10 30 -6 -9
-10 -10 -10 -3 0 6 -3 20 -6 30 -5 15 -4 15 5 3 9 -13 11 -12 11 5 0 37 -44
99 -83 118 -40 19 -41 23 -31 115 5 39 11 52 24 52 9 0 29 14 45 30 18 19 24
30 14 30 -8 0 -22 -12 -32 -26z m35 -315 c-12 -30 -25 -8 -16 27 5 21 9 23 15
11 5 -8 5 -25 1 -38z m-249 -218 c15 -22 42 -55 61 -74 24 -25 31 -38 24 -45
-8 -8 -20 1 -41 31 -16 23 -43 56 -59 74 -17 17 -27 36 -24 42 10 16 11 15 39
-28z"/>
<path d="M1150 3336 c0 -6 -3 -29 -7 -51 l-6 -40 25 30 26 30 144 2 c78 1 147
2 152 3 5 0 7 3 3 6 -12 12 -126 21 -131 10 -3 -7 -5 -6 -5 2 -1 6 -13 12 -27
12 -14 0 -23 -4 -19 -10 8 -13 -8 -13 -22 1 -8 8 -16 7 -29 -1 -15 -9 -28 -8
-61 3 -30 10 -43 11 -43 3z"/>
<path d="M2538 3333 c-21 -9 -38 -19 -38 -23 0 -5 17 -6 38 -3 29 4 51 -3 106
-31 38 -20 75 -36 82 -36 8 0 14 -8 14 -17 1 -23 79 -73 114 -73 36 0 33 14
-8 28 -18 7 -41 21 -51 32 -10 11 -24 20 -30 20 -7 0 -18 6 -24 14 -16 18 -77
51 -115 60 -31 8 -59 30 -49 40 8 8 5 7 -39 -11z"/>
<path d="M1525 3254 c-18 -43 -20 -68 -3 -39 7 11 17 26 24 33 11 11 10 42 -2
42 -2 0 -11 -16 -19 -36z"/>
<path d="M1325 3270 c-3 -5 -15 -10 -26 -10 -21 0 -49 -22 -49 -38 0 -13 25
-22 61 -22 23 0 29 4 27 18 -2 10 2 16 10 14 8 -1 11 2 7 8 -3 5 -13 10 -22
10 -13 0 -13 3 -3 15 7 8 10 15 7 15 -3 0 -9 -4 -12 -10z"/>
<path d="M2502 3230 c2 -7 17 -14 32 -16 17 -2 39 -15 54 -33 14 -17 31 -31
38 -31 8 0 19 -9 26 -21 7 -11 32 -29 56 -39 23 -10 42 -24 42 -30 0 -6 5 -8
10 -5 6 3 10 2 10 -3 0 -16 49 -20 61 -6 9 11 5 16 -16 24 -14 5 -29 10 -32
10 -3 0 -29 19 -57 43 -80 68 -236 143 -224 107z"/>
<path d="M2335 3143 c-4 -12 0 -14 15 -10 13 3 25 -2 35 -16 8 -11 18 -18 21
-14 10 9 -23 44 -46 50 -11 3 -21 -1 -25 -10z"/>
<path d="M2070 3121 c0 -14 38 -57 45 -50 13 13 -7 59 -26 59 -10 0 -19 -4
-19 -9z"/>
<path d="M1240 3096 c0 -8 9 -18 20 -21 11 -4 18 -10 15 -15 -3 -5 5 -16 17
-24 18 -12 33 -13 70 -5 26 6 52 17 58 24 10 12 7 13 -20 5 -36 -10 -65 -2
-65 20 0 10 -8 14 -22 13 -13 -2 -23 2 -23 7 0 6 -11 10 -25 10 -15 0 -25 -6
-25 -14z"/>
<path d="M2470 3093 c0 -11 7 -24 16 -27 26 -10 28 1 5 25 -21 22 -21 22 -21
2z"/>
<path d="M2920 3090 c0 -5 3 -10 8 -10 4 0 22 -13 40 -29 29 -27 32 -28 32
-10 0 11 -4 18 -8 15 -5 -3 -21 6 -37 20 -31 27 -35 28 -35 14z"/>
<path d="M806 3065 c-10 -7 -15 -19 -11 -25 11 -17 28 -6 30 18 1 12 1 22 1
22 -1 0 -9 -7 -20 -15z"/>
<path d="M2394 3025 c-7 -29 3 -46 15 -26 5 8 14 10 22 6 9 -6 11 -3 6 9 -4
10 -7 22 -7 27 0 21 -30 7 -36 -16z"/>
<path d="M1173 3005 c-15 -14 -22 -24 -14 -23 7 2 16 -3 18 -10 3 -8 -1 -10
-13 -5 -16 6 -17 5 -1 -16 12 -19 13 -27 4 -42 -7 -11 -17 -19 -23 -19 -16 0
-38 -29 -30 -38 4 -4 14 2 22 12 22 30 37 6 42 -64 5 -63 -18 -139 -42 -141
-77 -9 -87 -7 -103 24 -24 47 -26 183 -3 235 14 30 15 39 5 36 -7 -3 -21 -34
-30 -69 -16 -59 -16 -68 -1 -136 9 -40 14 -74 12 -76 -2 -2 -13 22 -25 54 -18
52 -20 54 -15 18 3 -22 14 -57 24 -77 12 -27 14 -38 5 -38 -15 0 -62 -103
-101 -220 -24 -73 -28 -101 -28 -200 0 -102 3 -123 28 -190 37 -97 44 -140 23
-140 -9 0 -19 -4 -22 -10 -3 -5 0 -7 7 -5 10 4 13 -6 13 -37 0 -24 -4 -46 -9
-49 -5 -4 1 -15 13 -25 25 -22 27 -40 4 -48 -14 -6 -14 -8 3 -21 18 -14 18
-14 1 -15 -10 0 -27 5 -38 10 -10 6 -19 8 -19 6 0 -3 14 -13 31 -22 25 -12 29
-18 18 -25 -11 -7 -11 -9 -1 -9 7 0 11 -4 7 -9 -3 -6 -20 -4 -41 5 -51 21 -54
10 -4 -12 23 -10 48 -30 55 -44 13 -23 14 -19 17 55 1 44 3 139 4 210 1 128 1
131 -30 185 -28 50 -31 63 -31 140 1 94 32 228 87 375 l32 84 48 -6 c35 -4 54
-1 74 12 22 14 28 15 36 4 7 -10 8 -7 5 9 -3 13 1 42 9 65 11 30 13 60 8 107
-12 122 -12 120 9 120 17 0 19 5 13 31 -3 17 -6 40 -6 50 0 26 -14 24 -47 -6z"/>
<path d="M2510 3011 c0 -11 4 -22 9 -25 11 -7 23 22 15 35 -9 16 -24 10 -24
-10z"/>
<path d="M2875 3010 c-3 -5 -2 -10 4 -10 5 0 16 -3 25 -6 11 -4 16 -1 16 10 0
18 -35 22 -45 6z"/>
<path d="M1870 2967 c0 -7 10 -18 21 -26 19 -11 21 -11 15 4 -3 9 -6 21 -6 26
0 5 -7 9 -15 9 -8 0 -15 -6 -15 -13z"/>
<path d="M1325 2946 c-19 -14 -19 -15 5 -35 22 -18 23 -20 6 -21 -11 0 -17 -3
-13 -6 3 -4 0 -19 -8 -35 -8 -15 -15 -32 -15 -36 1 -4 10 9 21 30 11 21 27 41
35 44 13 5 13 7 2 14 -10 6 -10 11 -1 20 11 11 7 39 -6 39 -4 0 -16 -6 -26
-14z"/>
<path d="M1076 2935 c-16 -12 -22 -31 -28 -85 0 -8 0 -34 0 -58 3 -60 22 -43
22 18 0 27 7 68 16 90 19 47 17 54 -10 35z"/>
<path d="M909 2887 c-20 -25 -24 -37 -17 -53 7 -15 4 -30 -11 -58 -28 -49 -26
-65 4 -36 19 18 25 34 25 64 0 23 5 48 10 56 9 13 11 13 20 0 8 -12 10 -11 10
7 0 12 3 28 6 37 11 28 -20 17 -47 -17z"/>
<path d="M1880 2905 c-11 -13 -8 -15 16 -17 16 0 35 -1 43 0 8 0 32 -9 54 -20
21 -10 36 -15 33 -10 -6 10 -111 62 -125 62 -5 0 -14 -7 -21 -15z"/>
<path d="M1227 2895 c-5 -12 -4 -21 2 -23 6 -2 11 -12 11 -21 0 -10 8 -26 19
-35 17 -15 19 -15 25 -1 3 9 -1 23 -9 31 -8 9 -15 22 -15 30 0 8 -4 13 -9 9
-5 -3 -11 3 -13 12 -3 16 -4 16 -11 -2z"/>
<path d="M1863 2869 c-23 -8 -50 -60 -58 -113 -3 -17 -10 -53 -15 -81 -9 -47
-12 -77 -26 -267 -6 -91 12 -204 55 -332 16 -47 26 -86 22 -86 -3 0 -1 -4 5
-8 6 -4 26 -41 45 -82 18 -41 45 -96 60 -121 15 -25 30 -57 34 -70 12 -39 34
-69 59 -79 21 -7 24 -17 29 -87 7 -101 26 -171 49 -179 10 -3 20 -19 24 -40 3
-19 10 -37 15 -40 5 -3 9 -10 9 -15 0 -6 -3 -8 -7 -6 -5 3 -9 -24 -9 -59 -1
-35 3 -64 8 -64 5 0 4 -9 -2 -20 -6 -11 -8 -25 -5 -30 4 -6 -3 -31 -16 -56
-19 -40 -21 -55 -15 -122 13 -141 4 -259 -29 -397 -4 -16 -19 -43 -34 -59 -25
-27 -25 -28 -3 -22 25 8 28 -4 10 -37 -7 -12 -17 -49 -23 -82 l-11 -60 -49
-13 c-28 -7 -99 -13 -160 -14 -99 -1 -126 3 -275 41 -212 54 -326 88 -372 112
-59 30 -224 167 -252 210 -30 44 -30 43 -23 199 4 87 11 127 27 165 24 55 62
181 78 260 14 65 9 109 -17 179 -12 31 -21 71 -21 89 0 41 -9 52 -40 51 -14 0
-29 3 -35 6 -17 12 -55 19 -55 10 0 -4 15 -13 33 -21 56 -22 84 -47 85 -74 0
-14 -2 -25 -3 -25 -1 0 -21 7 -44 15 -22 8 -41 10 -41 6 0 -5 15 -12 33 -15
67 -12 105 -93 73 -154 -17 -34 -22 -56 -6 -32 13 20 13 -1 0 -35 -5 -14 -12
-40 -15 -58 -4 -17 -11 -35 -18 -39 -7 -4 -8 -8 -4 -8 5 0 -28 -70 -72 -156
-45 -86 -81 -165 -81 -174 0 -24 -35 -31 -112 -24 -59 6 -62 5 -47 -11 12 -12
34 -17 78 -18 60 -1 70 -8 52 -36 -6 -9 -14 -10 -22 -5 -17 10 -45 14 -117 13
-28 0 -52 2 -52 4 0 20 25 67 35 67 7 0 15 11 17 25 8 39 -17 29 -40 -15 -25
-51 -31 -89 -16 -104 9 -9 10 -17 4 -21 -5 -3 -10 -22 -10 -41 0 -19 -4 -34
-10 -34 -5 0 -12 -15 -16 -34 -3 -19 -12 -37 -20 -40 -10 -4 -14 -18 -12 -43
2 -31 0 -37 -14 -35 -16 2 -45 -34 -35 -44 2 -2 18 -1 35 2 27 6 33 13 46 58
24 81 48 169 53 196 9 42 19 48 70 39 60 -9 83 -18 84 -33 3 -24 5 -32 16 -66
16 -46 13 -136 -5 -132 -9 1 -11 -5 -6 -23 4 -18 2 -27 -10 -31 -21 -8 -20
-17 4 -32 11 -7 19 -9 18 -5 -4 18 25 98 39 108 14 11 14 12 -1 18 -9 4 -16
16 -16 29 0 17 3 19 12 10 7 -7 18 -12 25 -12 21 0 15 27 -11 47 -21 17 -43
93 -26 93 9 0 31 100 25 110 -5 8 67 154 85 174 5 5 7 -11 4 -35 -7 -78 -16
-109 -30 -109 -9 0 -14 -11 -14 -27 1 -27 1 -27 15 -9 8 11 15 18 16 15 8 -39
8 -119 0 -119 -18 0 -12 -32 7 -37 10 -2 31 -25 47 -51 16 -26 40 -57 53 -68
20 -18 22 -25 13 -42 -7 -14 -17 -19 -28 -15 -11 4 -14 2 -11 -8 2 -7 24 -17
48 -21 45 -8 63 -23 55 -46 -2 -6 1 -12 6 -12 7 0 9 9 5 23 -4 12 -9 36 -12
52 l-5 30 31 -35 c16 -19 29 -39 27 -45 -3 -5 -1 -19 4 -30 7 -17 8 -16 8 8 1
29 21 39 21 9 0 -17 15 -22 73 -25 9 -1 17 -5 17 -9 0 -4 7 -8 16 -8 8 0 12
-5 8 -11 -4 -8 -1 -8 14 0 18 9 23 8 32 -9 6 -11 8 -25 5 -30 -3 -6 -1 -10 6
-10 6 0 9 8 6 20 -7 25 -13 26 118 -10 22 -6 50 -13 61 -15 27 -6 75 -31 70
-36 -3 -2 17 -5 42 -5 26 -1 79 -4 117 -8 122 -12 145 -13 145 -6 0 3 8 6 18
6 64 3 108 9 115 19 5 5 6 -2 3 -17 -6 -26 -48 -96 -65 -108 -11 -7 -41 -71
-41 -87 0 -27 18 -11 70 58 46 61 60 92 96 210 71 228 96 382 108 664 2 61 10
123 16 140 8 22 8 35 -1 52 -9 18 -10 29 -1 48 16 35 15 91 -2 118 -9 14 -11
29 -6 43 9 23 59 36 160 40 82 3 90 6 42 13 -23 4 -75 3 -115 -2 -111 -14
-112 -14 -112 8 0 19 6 20 140 17 176 -5 208 -12 239 -58 29 -43 43 -31 16 14
-27 44 -94 62 -239 63 l-116 1 61 13 c33 7 87 21 120 30 32 10 74 18 92 19 22
1 31 5 27 14 -3 7 -1 10 4 7 5 -3 12 -1 15 4 3 5 -3 11 -14 14 -11 3 -20 2
-20 -3 0 -4 -10 -8 -22 -8 -13 0 -71 -16 -130 -36 -59 -20 -132 -39 -163 -42
l-56 -7 1 39 c1 21 -4 63 -10 93 -8 39 -8 56 0 61 7 4 6 18 -6 46 -13 31 -14
45 -5 71 10 28 9 34 -12 57 -33 36 -47 90 -47 188 0 69 -5 96 -27 149 -23 55
-26 78 -26 164 0 259 78 465 176 465 52 0 62 -6 109 -68 23 -32 68 -86 99
-122 76 -88 93 -122 84 -176 -5 -39 -1 -53 45 -141 28 -54 53 -99 55 -101 2
-2 2 10 1 27 -1 16 2 29 7 28 5 -1 12 4 14 11 3 8 -3 11 -17 10 -26 -3 -35 24
-19 54 7 14 6 18 -6 18 -8 0 -15 -6 -15 -12 0 -7 -9 -2 -20 12 -11 14 -19 40
-18 60 0 19 -4 54 -10 77 -10 46 -88 169 -122 193 -11 8 -20 21 -20 28 0 8 -9
25 -20 39 -11 14 -20 34 -20 44 0 13 -10 20 -37 25 -21 4 -43 10 -48 15 -6 4
-24 7 -41 7 -16 -1 -39 4 -51 11 -27 14 -45 14 -20 0 16 -10 14 -14 -20 -49
-47 -47 -90 -163 -99 -267 -4 -40 -10 -70 -14 -68 -9 6 -39 155 -43 215 -3 42
-4 41 -5 -10 -1 -30 7 -95 18 -144 11 -50 20 -127 20 -173 0 -45 4 -92 9 -105
5 -13 19 -46 30 -75 15 -38 21 -74 21 -134 0 -84 25 -203 41 -193 5 3 8 -27 7
-66 0 -39 -5 -73 -9 -76 -5 -2 -17 12 -27 33 -10 21 -37 72 -58 113 -38 71
-96 203 -100 225 -1 6 -10 42 -19 80 -40 165 -45 314 -20 548 6 63 38 159 58
176 17 13 110 8 115 -7 2 -7 13 -12 25 -12 18 1 15 5 -14 20 -20 10 -49 18
-66 18 -17 -1 -34 1 -39 4 -5 3 -19 2 -31 -3z m-916 -1840 c-11 -32 -47 -81
-47 -65 0 10 53 106 57 102 1 -1 -3 -18 -10 -37z"/>
<path d="M936 2805 c3 -14 1 -32 -6 -40 -9 -11 -7 -23 8 -58 33 -73 58 -74 27
0 -8 19 -15 55 -15 79 0 24 -5 44 -10 44 -6 0 -8 -11 -4 -25z"/>
<path d="M1320 2785 c-7 -8 -12 -26 -12 -40 0 -14 -4 -25 -9 -25 -31 0 29 -73
82 -100 46 -24 151 -27 189 -5 24 14 23 14 -20 9 -32 -4 -57 -1 -85 12 -22 10
-47 18 -55 19 -8 1 -20 3 -27 4 -6 0 -21 15 -33 31 l-21 30 23 9 c17 7 19 10
6 10 -19 1 -26 21 -8 21 6 0 10 9 10 20 0 24 -22 26 -40 5z"/>
<path d="M831 2677 c-6 -8 -13 -33 -15 -56 -2 -22 -8 -47 -14 -54 -12 -14 -32
-85 -36 -128 -1 -15 -8 -41 -16 -58 -9 -23 -10 -34 -1 -45 21 -26 38 -111 37
-188 0 -42 2 -74 5 -72 9 5 19 -34 19 -79 0 -33 -3 -38 -19 -32 -18 5 -18 3
-5 -34 12 -34 11 -45 -7 -92 -10 -30 -16 -61 -13 -69 22 -54 3 -209 -25 -203
-14 4 -15 -14 -1 -22 7 -4 7 -12 0 -25 -5 -10 -10 -30 -10 -44 0 -37 -23 -119
-37 -134 -16 -16 -16 -25 -2 -39 7 -7 5 -21 -8 -47 -12 -26 -14 -39 -6 -44 8
-6 12 -57 4 -57 -2 0 -4 -13 -6 -30 -6 -56 -22 -115 -35 -131 -11 -12 -11 -17
-2 -23 9 -5 9 -12 -2 -26 -8 -11 -12 -25 -9 -32 3 -7 -2 -13 -10 -13 -9 0 -18
-4 -22 -9 -7 -12 16 -62 26 -56 14 9 88 284 93 350 4 43 26 166 51 285 9 41
19 89 22 105 3 17 13 40 21 53 11 18 12 25 2 37 -10 12 -10 18 -1 29 9 11 9
20 2 34 -14 26 -12 87 4 137 23 73 31 120 24 150 -4 17 -7 66 -8 110 0 44 -10
116 -22 161 l-21 81 31 158 c17 87 29 160 27 162 -2 2 -8 -3 -15 -10z"/>
<path d="M849 2598 c-11 -43 -7 -133 9 -193 6 -19 8 18 8 102 -1 73 -2 133 -3
133 -1 0 -7 -19 -14 -42z"/>
<path d="M2559 2501 l-24 -19 38 11 c20 7 37 15 37 19 0 14 -28 8 -51 -11z"/>
<path d="M2019 2355 c-5 -9 -5 -69 0 -170 2 -32 4 -36 11 -20 16 38 6 221 -11
190z"/>
<path d="M2095 2214 c-9 -9 -14 -23 -11 -31 4 -9 2 -11 -6 -7 -7 5 -9 2 -5 -9
3 -9 1 -18 -6 -21 -7 -2 -4 -5 5 -5 10 -1 23 9 29 22 7 12 18 25 25 30 13 8 8
37 -6 37 -5 0 -16 -7 -25 -16z"/>
<path d="M968 2139 c-5 -3 23 -7 63 -8 41 -1 76 -7 80 -13 5 -7 12 -7 25 2 14
8 14 10 3 7 -9 -3 -21 -1 -26 4 -11 11 -130 17 -145 8z"/>
<path d="M2132 2120 c-10 -16 -9 -18 3 -14 8 4 15 3 15 0 0 -4 -13 -12 -29
-17 -32 -11 -33 -39 -2 -39 14 0 14 2 1 10 -13 8 -13 10 1 10 20 0 46 47 33
60 -6 6 -14 2 -22 -10z"/>
<path d="M2513 2111 c-10 -16 -9 -26 3 -51 9 -17 15 -51 14 -78 -5 -110 -1
-142 19 -142 22 0 43 -23 40 -42 -2 -7 5 -28 15 -46 23 -45 18 -76 -14 -80
-14 -2 -29 -7 -35 -12 -14 -10 -88 -35 -98 -32 -5 1 -6 -2 -3 -7 8 -12 -15
-20 -52 -17 -17 1 -29 0 -27 -3 7 -6 -63 -32 -97 -36 -14 -2 -31 -6 -36 -9 -5
-3 -27 -8 -48 -12 -22 -3 -43 -10 -49 -16 -7 -7 16 -8 74 -4 94 7 201 44 295
101 32 19 62 35 67 35 14 0 11 -23 -7 -49 -15 -21 -15 -24 6 -43 l22 -20 -2
23 c-4 40 -1 51 12 47 7 -3 18 6 24 18 20 38 -21 280 -72 422 -14 39 -29 72
-33 72 -3 0 -12 -9 -18 -19z m75 -213 c9 -32 8 -36 -6 -31 -22 8 -32 23 -32
50 0 19 22 39 27 24 1 -3 6 -23 11 -43z"/>
<path d="M1542 2111 c-10 -6 -8 -10 8 -14 17 -4 21 -12 18 -34 -3 -31 -35 -44
-49 -21 -7 10 -9 10 -9 0 0 -7 -5 -10 -12 -6 -6 4 -8 3 -5 -3 4 -6 26 -15 49
-22 81 -22 292 -39 268 -22 -8 6 -34 11 -57 11 -24 0 -43 5 -43 10 0 6 8 10
18 10 14 0 14 2 3 9 -19 12 -6 41 18 41 11 0 23 5 26 10 3 6 2 10 -4 10 -5 0
-17 3 -27 7 -13 5 -15 3 -9 -8 7 -11 5 -11 -10 1 -11 9 -16 10 -11 3 4 -7 2
-13 -3 -13 -6 0 -11 4 -11 9 0 13 -43 8 -59 -8 -13 -11 -16 -11 -22 5 -6 15
-8 14 -8 -8 -1 -16 -1 -31 -2 -35 0 -5 7 -9 15 -11 10 -2 16 4 16 17 0 26 9
30 43 24 62 -12 5 -65 -64 -61 -39 3 -39 3 -40 48 -1 25 -1 48 0 53 1 10 -21
9 -37 -2z"/>
<path d="M990 2089 c0 -5 28 -9 62 -9 34 0 59 2 57 4 -9 9 -119 13 -119 5z"/>
<path d="M1523 1956 c0 -12 4 -13 14 -5 10 9 14 7 19 -6 5 -11 9 -13 14 -6 4
8 17 7 44 -4 28 -12 36 -13 31 -3 -3 7 -1 6 7 -2 14 -16 52 -24 42 -9 -3 5 0
9 5 9 6 0 11 -6 11 -12 0 -8 3 -9 8 -3 8 12 72 14 65 2 -3 -5 4 -3 15 4 12 7
20 15 18 16 -2 2 -39 6 -82 9 -115 7 -145 10 -180 18 -24 5 -31 4 -31 -8z"/>
<path d="M1000 1870 c-1 -25 -2 -48 -1 -52 0 -4 3 -24 5 -44 6 -47 13 -53 25
-21 7 19 6 43 -5 84 -21 81 -22 84 -24 33z"/>
<path d="M1055 1900 c-5 -8 8 -25 21 -27 7 -1 19 5 27 15 14 16 13 17 -15 17
-16 0 -31 -2 -33 -5z"/>
<path d="M2284 1862 c-11 -7 -12 -47 -2 -57 3 -3 11 1 18 10 10 12 10 15 -1
15 -10 0 -11 2 -2 8 7 4 9 13 5 19 -4 7 -12 9 -18 5z"/>
<path d="M2190 1822 c6 -13 17 -21 23 -19 7 2 19 1 28 -4 11 -5 16 -3 16 6 0
8 -10 13 -26 11 -14 -1 -32 5 -39 14 -11 13 -11 11 -2 -8z"/>
<path d="M1265 1770 c-29 -6 -28 -6 14 -13 49 -9 58 -6 33 9 -9 5 -30 7 -47 4z"/>
<path d="M2529 1766 c-14 -7 -34 -10 -44 -6 -21 7 -84 -6 -99 -20 -5 -5 -14
-6 -21 -4 -7 3 -16 0 -20 -6 -5 -8 -11 -8 -21 1 -11 9 -14 9 -14 0 0 -7 -4 -9
-10 -6 -5 3 -10 2 -10 -3 0 -5 -16 -8 -35 -5 -19 2 -35 -1 -35 -5 0 -5 -19
-13 -42 -17 -29 -5 -36 -9 -23 -12 11 -3 25 -10 30 -15 7 -7 7 -9 0 -5 -6 3
-17 1 -25 -4 -11 -7 -7 -8 14 -5 16 3 33 11 38 18 6 10 8 10 8 -2 0 -13 2 -13
9 -1 10 15 18 18 88 25 24 3 52 10 63 16 11 6 49 13 85 17 45 4 70 12 81 24
22 25 14 32 -17 15z"/>
<path d="M2912 1768 c-14 -14 -16 -38 -2 -38 13 0 32 38 22 44 -5 3 -14 0 -20
-6z"/>
<path d="M1450 1761 c0 -5 -24 -8 -55 -7 -30 2 -53 1 -51 -1 5 -6 35 -11 64
-12 17 -1 22 -7 22 -26 0 -13 -7 -28 -15 -32 -10 -6 -11 -13 -5 -23 8 -13 10
-12 10 3 0 18 34 24 45 7 4 -6 -1 -7 -12 -4 -15 5 -15 4 -3 -5 9 -6 18 -7 24
-1 6 6 23 10 38 10 15 0 28 4 28 9 0 5 -12 8 -27 6 -65 -8 -94 22 -58 59 9 9
11 17 5 21 -5 3 -10 2 -10 -4z"/>
<path d="M1553 1740 c-1 -15 5 -18 37 -16 22 2 38 0 35 -3 -7 -12 130 -6 150
6 15 9 16 12 5 13 -9 0 -22 -6 -29 -12 -11 -11 -13 -10 -8 5 4 11 1 17 -9 17
-8 0 -13 -4 -10 -8 3 -5 -17 -10 -44 -11 -28 -1 -50 3 -50 7 0 5 -12 8 -27 8
-16 -1 -33 2 -38 6 -6 4 -11 -1 -12 -12z"/>
<path d="M1170 1715 c14 -16 53 -27 43 -12 -4 6 0 8 10 4 10 -3 17 -2 17 3 0
10 -5 12 -52 15 -21 2 -25 -1 -18 -10z"/>
<path d="M1781 1703 c4 -25 -3 -35 -21 -30 -14 4 -20 0 -20 -11 0 -13 -2 -14
-8 -4 -11 17 -52 24 -52 9 0 -8 -3 -9 -8 -1 -8 13 -122 17 -122 4 0 -5 -8 -11
-17 -13 -11 -3 -7 -5 10 -6 15 0 27 2 27 7 0 8 88 8 96 -1 3 -3 12 -3 20 0 8
3 14 1 14 -4 0 -4 23 -9 50 -9 28 0 50 3 50 8 0 4 -4 8 -10 8 -5 0 -7 7 -3 16
4 11 8 12 13 4 4 -7 10 -8 13 -3 3 5 -3 14 -14 21 -10 7 -19 9 -18 5z"/>
<path d="M2891 1636 c-8 -10 -5 -16 15 -24 14 -7 29 -12 34 -12 14 0 2 24 -19
37 -15 10 -22 9 -30 -1z"/>
<path d="M2666 1547 c1 -49 5 -55 14 -24 9 28 4 57 -9 57 -3 0 -6 -15 -5 -33z"/>
<path d="M2888 1543 c-19 -5 -22 -12 -10 -30 5 -8 12 -8 27 3 21 16 10 33 -17
27z"/>
<path d="M2582 1528 c-7 -7 -4 -23 9 -52 33 -74 18 -156 -29 -156 -18 0 -14
-15 8 -35 23 -21 26 -52 6 -80 -7 -11 -16 -40 -19 -65 -7 -62 -44 -261 -52
-282 -5 -12 -2 -18 6 -18 17 0 39 60 44 120 2 25 7 56 11 70 4 14 8 41 8 62 1
20 4 34 9 31 4 -2 7 8 7 23 0 15 9 35 20 44 19 17 19 18 3 25 -17 6 -17 7 0
16 21 12 22 29 2 29 -19 0 -16 40 4 64 7 9 10 16 6 16 -4 0 -1 7 6 16 7 9 12
29 11 45 -3 32 10 37 53 17 14 -6 25 -20 25 -30 0 -11 -4 -17 -9 -14 -12 8
-29 -63 -36 -154 -4 -41 -8 -77 -10 -81 -10 -15 -18 -83 -21 -179 -2 -58 -4
-114 -4 -125 0 -11 -13 -32 -27 -47 -44 -47 -110 -30 -96 23 3 11 1 19 -5 19
-11 0 -32 -79 -25 -92 7 -14 93 -9 122 6 47 25 58 52 59 151 1 148 4 199 13
216 9 17 13 43 24 167 6 56 11 75 26 83 10 5 19 20 19 33 0 20 -8 26 -45 35
-25 6 -43 15 -40 20 3 5 -3 7 -13 4 -10 -2 -26 5 -36 16 -19 21 -19 21 2 21
23 0 38 15 23 24 -5 4 -12 2 -16 -4 -3 -5 -11 -10 -17 -10 -7 0 -7 5 1 14 14
17 -11 30 -27 14z"/>
<path d="M2726 1531 c-4 -5 -1 -13 5 -16 6 -4 14 -17 19 -29 8 -20 8 -20 16
-2 11 29 -25 72 -40 47z"/>
<path d="M2932 1398 c-19 -19 -14 -30 10 -26 13 2 24 11 26 21 4 20 -18 23
-36 5z"/>
<path d="M2783 1373 c-3 -10 -12 -22 -20 -26 -7 -4 -13 -18 -13 -30 1 -21 2
-20 18 6 9 15 25 30 35 33 19 6 19 25 -1 32 -7 2 -15 -5 -19 -15z"/>
<path d="M94 1372 c2 -4 24 -9 48 -11 24 -1 53 -8 64 -16 20 -13 34 -11 34 5
0 4 -15 11 -32 15 -51 12 -120 16 -114 7z"/>
<path d="M298 1372 c-9 -2 -19 -10 -22 -18 -7 -18 42 -19 67 0 16 13 16 14 -5
18 -13 2 -30 2 -40 0z"/>
<path d="M2866 1361 c-8 -13 11 -51 25 -51 6 0 8 9 4 23 -10 30 -21 41 -29 28z"/>
<path d="M2263 1316 c-58 -15 -68 -30 -13 -21 45 8 156 10 175 3 6 -1 11 2 12
7 1 6 -7 10 -17 9 -11 0 -20 2 -20 6 0 10 -92 7 -137 -4z"/>
<path d="M835 1304 c22 -9 51 -18 65 -20 14 -3 32 -7 40 -10 10 -3 11 -2 5 4
-11 11 -116 42 -137 41 -7 0 5 -7 27 -15z"/>
<path d="M2765 1268 c-1 -13 -4 -36 -8 -51 l-8 -28 30 27 c29 26 30 27 13 50
-21 29 -27 30 -27 2z"/>
<path d="M6 1265 c7 -16 49 -21 58 -6 3 5 -4 11 -17 15 -36 9 -47 7 -41 -9z"/>
<path d="M2083 1253 c-8 -3 -11 -14 -7 -28 3 -14 -1 -34 -11 -49 -10 -15 -13
-26 -7 -26 17 0 34 39 29 66 -2 13 1 25 7 27 6 2 9 7 6 9 -3 3 -11 3 -17 1z"/>
<path d="M32 1182 c-7 -5 -6 -13 4 -27 13 -17 16 -18 24 -5 5 8 10 18 10 21 0
11 -26 18 -38 11z"/>
<path d="M102 1168 c7 -20 48 -23 48 -4 0 11 -9 16 -26 16 -16 0 -24 -5 -22
-12z"/>
<path d="M785 1161 c22 -11 49 -20 60 -20 12 0 6 5 -15 13 -62 23 -86 27 -45
7z"/>
<path d="M251 1113 c-22 -26 -41 -50 -41 -55 0 -4 -9 -8 -20 -8 -11 0 -20 -5
-20 -11 0 -18 53 -6 56 13 3 20 29 50 37 42 8 -8 50 33 53 51 4 28 -23 15 -65
-32z"/>
<path d="M2862 1130 c10 -16 10 -24 0 -41 -14 -22 -10 -35 6 -25 16 10 20 75
4 81 -22 8 -23 6 -10 -15z"/>
<path d="M2275 1114 c33 -8 68 -16 78 -17 16 -1 18 -7 12 -37 -14 -79 -14
-110 1 -45 18 78 21 85 33 66 7 -10 9 -10 14 2 7 18 -57 37 -143 43 l-55 4 60
-16z"/>
<path d="M345 1109 c-8 -12 11 -29 33 -29 19 0 10 34 -10 38 -9 2 -19 -2 -23
-9z"/>
<path d="M2788 1106 c-23 -17 -23 -36 0 -36 21 0 42 18 42 37 0 17 -20 16 -42
-1z"/>
<path d="M2964 1056 c-10 -8 -17 -16 -14 -19 8 -8 50 11 50 23 0 14 -13 13
-36 -4z"/>
<path d="M2807 1017 c-27 -29 -27 -32 -11 -44 35 -26 57 -9 34 27 -6 9 -5 17
2 21 6 4 9 11 7 17 -2 5 -17 -4 -32 -21z"/>
<path d="M112 983 c4 -21 36 -29 51 -14 9 9 8 14 -3 21 -25 16 -52 12 -48 -7z"/>
<path d="M392 988 c3 -7 14 -14 26 -16 16 -3 20 1 16 12 -7 19 -48 22 -42 4z"/>
<path d="M0 960 c0 -16 35 -30 77 -30 14 0 14 3 1 21 -18 28 -78 35 -78 9z"/>
<path d="M2705 950 c-10 -11 -15 -20 -10 -20 4 0 14 8 21 18 12 15 15 15 23 2
11 -16 27 -7 16 9 -10 17 -30 13 -50 -9z"/>
<path d="M2840 924 l-35 -34 32 12 c17 6 36 22 42 35 14 31 3 27 -39 -13z"/>
<path d="M267 944 c-14 -14 6 -24 48 -24 35 0 43 3 39 15 -6 15 -74 22 -87 9z"/>
<path d="M2275 930 c33 -11 89 -25 124 -30 36 -6 68 -13 73 -16 4 -3 8 -1 8 3
0 7 -68 23 -240 58 -14 3 2 -4 35 -15z"/>
<path d="M170 894 c0 -3 10 -14 23 -25 24 -20 72 -25 82 -9 3 6 -3 10 -13 10
-11 0 -22 7 -26 15 -5 14 -66 22 -66 9z"/>
<path d="M2751 891 c-8 -6 -11 -16 -7 -27 5 -12 10 -14 17 -7 16 16 7 45 -10
34z"/>
<path d="M2866 854 c-7 -19 2 -37 15 -29 12 8 12 45 0 45 -5 0 -12 -7 -15 -16z"/>
<path d="M390 806 c-37 -35 -60 -65 -60 -77 0 -7 9 0 21 15 11 14 28 26 38 26
17 0 61 39 61 53 0 16 -37 5 -60 -17z"/>
<path d="M2952 808 c2 -12 9 -23 16 -26 18 -6 15 35 -4 42 -11 4 -15 0 -12
-16z"/>
<path d="M467 780 c-19 -22 -42 -40 -49 -40 -7 0 -24 -14 -38 -31 -14 -17 -35
-42 -47 -55 -26 -28 -32 -77 -9 -68 23 9 67 79 61 96 -5 12 3 19 27 27 19 6
40 21 48 32 8 12 26 35 38 50 36 44 10 35 -31 -11z"/>
<path d="M2887 792 c-9 -10 -17 -23 -17 -28 0 -5 4 -2 10 6 5 8 12 11 16 7 4
-4 2 -13 -4 -19 -16 -16 -15 -51 1 -45 6 2 12 8 13 13 0 5 4 16 8 25 4 8 3 25
-2 38 -8 22 -8 22 -25 3z"/>
<path d="M35 770 c-24 -26 -13 -52 17 -41 16 6 23 17 24 35 1 31 -16 34 -41 6z"/>
<path d="M160 763 c-19 -19 -22 -28 -14 -41 15 -24 40 -26 40 -5 1 10 4 30 9
46 9 33 -2 33 -35 0z"/>
<path d="M2463 718 c-6 -7 -20 -56 -32 -108 -12 -52 -27 -112 -33 -133 -6 -20
-9 -40 -5 -43 3 -3 15 27 27 68 11 40 27 94 35 120 8 26 15 53 15 62 0 8 4 16
10 18 5 2 6 9 1 16 -6 11 -10 11 -18 0z"/>
<path d="M2739 721 c11 -7 10 -13 -4 -34 -9 -14 -27 -33 -41 -42 -13 -8 -24
-22 -24 -30 0 -21 13 -19 28 5 7 11 19 20 27 20 8 0 22 16 31 36 15 30 15 37
3 45 -8 5 -18 9 -24 9 -5 0 -4 -4 4 -9z"/>
<path d="M2953 663 c-10 -26 -9 -32 4 -37 23 -9 25 -3 15 35 l-8 34 -11 -32z"/>
<path d="M75 671 c-3 -5 -1 -12 5 -16 5 -3 10 -3 10 1 0 4 13 -5 29 -20 28
-27 61 -30 61 -7 0 14 -14 21 -44 23 -14 1 -28 8 -30 15 -6 15 -22 17 -31 4z"/>
<path d="M243 673 c-7 -3 -13 -17 -13 -31 0 -24 1 -25 16 -10 18 18 16 47 -3
41z"/>
<path d="M2776 654 c-14 -15 -24 -30 -21 -33 4 -3 9 0 13 6 4 6 20 15 35 18
15 4 26 12 24 18 -7 21 -24 17 -51 -9z"/>
<path d="M447 663 c-18 -17 -5 -33 28 -33 41 0 45 12 10 28 -30 14 -30 14 -38
5z"/>
<path d="M2878 654 c-4 -3 -14 -7 -24 -8 -10 -2 -20 -9 -22 -16 -4 -10 2 -11
19 -6 13 4 29 8 36 8 6 1 9 7 6 15 -6 15 -7 15 -15 7z"/>
<path d="M2580 640 c0 -15 38 -32 45 -20 3 5 3 15 0 20 -8 13 -45 13 -45 0z"/>
<path d="M42 590 c-1 -25 7 -48 20 -65 20 -26 20 -28 4 -77 -9 -28 -16 -57
-16 -65 0 -25 25 -8 26 18 0 13 5 35 11 49 18 43 23 114 10 139 -7 13 -22 27
-33 32 -20 7 -22 4 -22 -31z"/>
<path d="M413 608 c-20 -32 -31 -57 -25 -62 10 -11 21 -6 27 13 5 16 12 19 40
14 41 -7 46 8 10 31 -29 19 -41 20 -52 4z"/>
<path d="M227 593 c-13 -12 -7 -43 7 -43 19 0 48 29 41 41 -7 10 -39 12 -48 2z"/>
<path d="M2720 580 c0 -5 -7 -10 -16 -10 -8 0 -25 -5 -36 -11 -16 -8 -18 -13
-8 -19 7 -5 20 -4 29 0 9 5 24 11 34 14 18 6 24 36 7 36 -5 0 -10 -4 -10 -10z"/>
<path d="M2575 569 c-4 -6 -4 -13 -1 -16 3 -3 1 -12 -5 -19 -16 -19 16 -30 44
-15 22 11 22 11 -2 5 -21 -6 -23 -4 -16 25 6 30 -6 43 -20 20z"/>
<path d="M866 521 c-3 -22 -3 -47 0 -55 3 -9 1 -23 -5 -30 -9 -10 -9 -16 -1
-21 17 -10 18 -6 21 67 4 75 -5 99 -15 39z"/>
<path d="M2726 529 c-11 -33 -15 -89 -6 -89 15 0 27 32 24 64 -3 33 -12 45
-18 25z"/>
<path d="M2820 531 c0 -5 -10 -11 -22 -13 l-23 -3 22 -7 c15 -4 27 0 39 13 16
17 16 19 1 19 -10 0 -17 -4 -17 -9z"/>
<path d="M0 449 c1 -79 13 -78 23 3 5 34 3 49 -8 58 -13 11 -15 2 -15 -61z"/>
<path d="M178 503 c-4 -46 9 -106 21 -99 4 3 8 30 8 61 0 40 -4 55 -13 55 -8
0 -15 -8 -16 -17z"/>
<path d="M273 483 c-20 -22 -32 -63 -19 -63 10 0 57 29 59 36 1 5 9 9 17 9 8
0 16 9 18 19 3 14 0 17 -12 13 -9 -4 -16 -2 -16 3 0 18 -25 9 -47 -17z"/>
<path d="M2843 485 c-8 -9 -9 -16 -3 -20 6 -4 8 -11 5 -16 -4 -5 1 -9 9 -9 11
0 16 9 16 30 0 33 -8 37 -27 15z"/>
<path d="M2910 460 c-12 -23 -3 -25 23 -6 21 16 22 26 2 26 -8 0 -19 -9 -25
-20z"/>
<path d="M612 438 c-17 -17 -15 -31 7 -45 11 -7 18 -20 15 -30 -2 -10 -6 -34
-8 -53 -2 -19 -4 -38 -5 -42 0 -5 -8 -8 -16 -8 -8 0 -15 -4 -15 -10 0 -5 7
-10 15 -10 18 0 21 -50 3 -68 -9 -9 -6 -12 15 -12 14 0 30 -6 34 -13 4 -7 22
-17 38 -22 24 -9 30 -16 30 -40 1 -16 6 -30 13 -33 7 -2 12 6 12 22 0 21 5 26
24 26 14 0 27 4 30 9 8 12 -4 41 -16 41 -6 0 -7 -7 -4 -15 3 -9 -1 -18 -10
-22 -19 -7 -67 14 -60 26 6 9 58 24 91 25 12 1 21 9 23 22 3 18 -4 22 -37 28
-57 9 -55 32 2 27 11 -2 17 5 17 18 0 23 -19 28 -38 9 -9 -9 -12 -8 -12 8 0
10 -7 27 -15 38 -12 16 -13 13 -10 -32 4 -42 2 -51 -13 -55 -12 -3 -11 -5 6
-6 37 -2 28 -44 -14 -68 -19 -10 -22 -8 -32 25 -6 20 -14 69 -18 107 -10 94
-35 170 -52 153z"/>
<path d="M2742 429 c-11 -16 -9 -19 7 -19 25 0 34 15 18 28 -9 8 -16 6 -25 -9z"/>
<path d="M1563 385 c0 -33 2 -45 4 -27 2 18 2 45 0 60 -2 15 -4 0 -4 -33z"/>
<path d="M2927 410 c-15 -16 -34 -30 -42 -30 -8 0 -15 -5 -15 -11 0 -6 6 -8
13 -5 6 3 20 9 30 12 9 4 17 10 17 15 0 5 11 14 25 19 14 5 25 14 25 20 0 20
-27 10 -53 -20z"/>
<path d="M1633 365 c0 -33 2 -45 4 -27 2 18 2 45 0 60 -2 15 -4 0 -4 -33z"/>
<path d="M1653 365 c0 -33 2 -45 4 -27 2 18 2 45 0 60 -2 15 -4 0 -4 -33z"/>
<path d="M2380 405 c0 -8 8 -15 18 -15 14 -1 12 -5 -9 -23 -15 -12 -29 -31
-32 -42 -3 -11 -8 -30 -12 -42 -8 -29 8 -30 35 -3 25 25 25 30 -2 31 -17 1
-19 2 -5 6 9 2 17 10 17 18 0 15 79 26 97 13 7 -5 14 -5 18 2 3 5 16 10 27 10
11 0 31 11 44 25 21 23 21 24 3 30 -25 8 -40 -2 -32 -22 5 -12 2 -15 -9 -11
-9 4 -21 1 -27 -5 -8 -8 -11 -8 -11 2 0 7 -5 9 -10 6 -6 -4 -17 -1 -25 5 -12
10 -15 9 -15 -9 0 -11 -4 -21 -10 -21 -5 0 -10 8 -10 18 0 11 -11 24 -25 30
-21 10 -25 9 -25 -3z"/>
<path d="M136 382 c-4 -11 -5 -26 -4 -33 2 -8 -5 -14 -17 -14 -21 0 -32 -28
-34 -82 -1 -23 4 -33 14 -33 9 0 15 9 15 24 0 13 9 35 20 49 11 14 20 30 20
35 0 5 8 13 18 17 15 6 16 8 1 18 -9 7 -16 16 -17 20 -1 18 -10 17 -16 -1z"/>
<path d="M848 378 c-10 -10 -19 -21 -20 -25 -2 -5 -7 -7 -11 -5 -5 1 -7 -2 -5
-8 2 -7 7 -11 11 -11 4 1 13 1 21 1 8 0 16 14 19 33 2 17 4 32 3 33 0 0 -9 -8
-18 -18z"/>
<path d="M945 379 c-8 -23 7 -39 38 -39 21 0 23 16 2 24 -8 3 -15 12 -15 21 0
22 -18 18 -25 -6z"/>
<path d="M2673 360 c-18 -17 -40 -30 -49 -30 -9 0 -22 -7 -29 -16 -8 -11 -19
-14 -34 -9 -18 5 -20 9 -10 21 13 16 1 18 -21 4 -13 -8 -12 -11 5 -24 23 -18
61 -21 70 -6 9 14 62 12 68 -2 2 -8 8 -9 13 -4 5 5 4 11 -3 13 -18 7 -16 33 2
33 9 0 19 8 22 18 4 9 11 20 17 24 7 5 5 8 -4 8 -8 0 -29 -14 -47 -30z"/>
<path d="M382 357 c-17 -18 -19 -26 -10 -35 9 -9 9 -15 0 -24 -13 -13 -17 -68
-4 -68 4 0 17 22 30 49 35 78 26 123 -16 78z"/>
<path d="M213 320 c4 -16 2 -32 -3 -35 -6 -3 -10 -22 -10 -41 0 -19 -10 -53
-22 -76 -13 -22 -31 -55 -40 -72 -9 -17 -17 -40 -18 -51 0 -12 -6 -27 -12 -34
-11 -11 -10 -13 5 -7 10 3 20 6 23 6 2 0 10 16 18 35 14 34 38 46 51 25 15
-24 25 -6 25 45 0 45 4 56 21 65 11 7 18 14 16 17 -3 2 -14 0 -25 -6 -20 -10
-20 -8 -16 47 3 31 11 67 19 78 16 24 11 34 -18 34 -16 0 -19 -5 -14 -30z"/>
<path d="M2788 338 c-6 -16 19 -41 32 -33 17 10 11 25 -7 19 -15 -5 -15 -3 1
10 20 16 19 16 -1 16 -12 0 -23 -6 -25 -12z"/>
<path d="M0 333 c0 -15 22 -43 31 -38 16 10 10 32 -11 38 -11 3 -20 3 -20 0z"/>
<path d="M2940 316 c0 -7 -11 -22 -25 -32 -27 -21 -34 -40 -10 -30 8 3 22 9
30 12 10 4 15 0 15 -10 0 -9 5 -16 10 -16 12 0 13 37 1 44 -5 3 -7 15 -4 26 3
11 0 20 -6 20 -6 0 -11 -6 -11 -14z"/>
<path d="M860 307 c0 -9 -7 -17 -16 -17 -14 0 -14 -2 -3 -16 10 -12 13 -50 11
-145 -2 -125 -1 -129 19 -129 20 0 21 4 14 47 -4 27 -8 97 -10 156 -2 60 -6
111 -9 114 -3 4 -6 -1 -6 -10z"/>
<path d="M2447 269 c-16 -18 -16 -21 -1 -44 9 -14 21 -25 26 -25 5 0 6 -9 3
-20 -4 -14 -2 -20 8 -20 8 0 17 8 19 18 7 24 4 37 -5 34 -4 -1 -15 5 -24 14
-13 13 -14 20 -5 35 16 25 -1 32 -21 8z"/>
<path d="M2589 243 c-33 -53 -34 -57 -14 -49 11 4 22 1 26 -6 4 -7 11 -9 16
-5 4 5 2 12 -5 16 -15 9 -6 37 14 45 14 5 9 36 -6 36 -4 0 -19 -17 -31 -37z"/>
<path d="M2518 258 c-5 -15 14 -58 26 -58 4 0 6 10 2 23 -3 12 -6 28 -6 35 0
15 -17 16 -22 0z"/>
<path d="M2820 261 c0 -3 7 -15 15 -25 15 -19 15 -19 15 1 0 12 8 23 18 26 9
2 2 4 -15 4 -18 0 -33 -3 -33 -6z"/>
<path d="M395 240 c-22 -25 -12 -39 17 -21 11 7 24 9 28 4 12 -12 0 -63 -15
-63 -7 0 -15 -7 -19 -15 -8 -23 31 -19 44 4 6 12 17 17 29 14 26 -7 36 14 11
22 -11 3 -20 14 -20 23 -1 43 -47 63 -75 32z"/>
<path d="M2372 242 c-19 -12 -25 -13 -31 -3 -5 8 -12 -7 -18 -39 -6 -28 -8
-49 -6 -46 3 2 13 -4 24 -15 32 -32 43 -21 15 15 -28 37 -26 66 5 66 17 0 18
-3 9 -20 -15 -28 -3 -44 17 -25 8 9 13 19 10 22 -4 3 -2 13 3 22 14 28 -2 41
-28 23z"/>
<path d="M2653 241 c-45 -38 -17 -35 32 3 15 11 16 15 5 15 -8 0 -25 -8 -37
-18z"/>
<path d="M2746 224 c-9 -23 13 -26 34 -6 l21 20 -25 0 c-14 0 -27 -7 -30 -14z"/>
<path d="M520 197 c0 -23 4 -36 10 -32 13 8 13 35 0 55 -7 11 -10 5 -10 -23z"/>
<path d="M965 222 c8 -7 94 -36 102 -34 2 1 35 -10 75 -24 79 -28 112 -48 113
-67 1 -26 38 -97 50 -97 41 0 -51 150 -100 163 -11 3 -58 16 -105 30 -115 33
-147 40 -135 29z"/>
<path d="M2901 198 c-6 -10 -16 -16 -21 -13 -5 3 -11 1 -14 -4 -3 -5 6 -11 20
-14 20 -3 28 0 31 14 3 11 10 19 15 19 6 0 8 -7 4 -15 -3 -8 -1 -15 3 -15 5 0
11 7 15 15 3 9 15 19 27 24 17 6 11 8 -23 8 -33 0 -48 -5 -57 -19z"/>
<path d="M2423 178 c-6 -7 -13 -21 -16 -30 -5 -15 -4 -16 13 -5 11 6 20 20 20
29 0 21 -4 22 -17 6z"/>
<path d="M2560 162 c0 -7 -7 -12 -15 -12 -9 0 -15 -9 -15 -25 0 -22 3 -24 19
-16 24 13 35 41 21 55 -7 7 -10 6 -10 -2z"/>
<path d="M285 150 c-4 -7 0 -19 9 -28 15 -15 16 -15 16 1 0 9 0 20 1 24 1 13
-19 15 -26 3z"/>
<path d="M20 137 c0 -17 37 -30 46 -15 7 11 5 14 -23 22 -17 5 -23 3 -23 -7z"/>
<path d="M546 143 c-11 -11 -7 -25 7 -20 15 5 47 -10 47 -24 0 -5 -11 -15 -25
-21 -14 -6 -25 -19 -25 -29 0 -10 -4 -21 -10 -24 -17 -10 -11 -25 10 -25 11 0
19 3 19 7 -1 5 -1 18 0 31 1 28 31 30 38 2 6 -24 16 -25 33 -6 6 8 21 16 33
18 30 4 28 20 -5 29 -15 4 -42 18 -60 31 -45 34 -54 38 -62 31z"/>
<path d="M2746 136 c3 -9 10 -13 15 -10 5 3 9 -2 9 -10 0 -9 5 -16 10 -16 6 0
10 9 10 20 0 11 -4 20 -9 20 -5 0 -17 3 -25 6 -12 5 -15 2 -10 -10z"/>
<path d="M2844 124 c3 -9 6 -23 6 -31 0 -11 6 -8 19 8 22 27 19 39 -11 39 -14
0 -18 -5 -14 -16z"/>
<path d="M2917 126 c-4 -10 -1 -19 8 -22 8 -4 15 -14 15 -24 0 -11 5 -22 12
-26 8 -5 9 0 6 14 -4 12 -2 22 3 22 5 0 9 5 9 10 0 6 -5 10 -11 10 -7 0 -17 7
-24 16 -11 16 -12 16 -18 0z"/>
<path d="M434 110 c-46 -18 -37 -46 11 -34 16 4 25 13 25 25 0 21 -5 22 -36 9z"/>
<path d="M2576 104 c-8 -22 -8 -24 9 -24 9 0 12 6 8 17 -5 12 -2 15 10 10 9
-3 19 -2 22 3 4 6 -5 10 -18 10 -14 0 -28 -7 -31 -16z"/>
<path d="M2656 112 c6 -4 14 -17 18 -29 9 -27 19 -29 36 -8 10 13 9 15 -9 15
-12 0 -21 6 -21 15 0 8 -8 15 -17 15 -11 0 -14 -3 -7 -8z"/>
<path d="M451 46 c-15 -18 -3 -46 19 -46 13 0 16 6 12 25 -6 32 -16 39 -31 21z"/>
<path d="M2867 42 c1 -8 3 -20 3 -28 0 -8 9 -14 23 -13 16 1 18 2 5 6 -23 6
-23 21 -1 19 10 0 19 7 21 17 2 9 -1 17 -7 17 -6 0 -11 -4 -11 -10 0 -12 -26
-14 -33 -2 -2 4 -2 1 0 -6z"/>
<path d="M2754 31 c17 -18 17 -19 -1 -24 -11 -3 -8 -5 11 -6 24 -1 26 1 16 14
-6 8 -9 19 -5 25 3 6 -3 10 -16 10 -21 0 -21 -1 -5 -19z"/>
<path d="M260 30 c0 -5 7 -10 16 -10 8 0 12 -4 9 -10 -3 -6 5 -10 18 -10 20 0
24 4 20 20 -4 14 -14 20 -34 20 -16 0 -29 -4 -29 -10z"/>
</g>
</svg>
